<svg width="190" height="60" viewBox="0 0 190 60" fill="none" xmlns="http://www.w3.org/2000/svg">
<path d="M23.12 24.72C23.12 26.2133 22.76 27.6133 22.04 28.92C21.3467 30.2267 20.24 31.28 18.72 32.08C17.2267 32.88 15.3333 33.28 13.04 33.28H8.36V44H2.76V16.08H13.04C15.2 16.08 17.04 16.4533 18.56 17.2C20.08 17.9467 21.2133 18.9733 21.96 20.28C22.7333 21.5867 23.12 23.0667 23.12 24.72ZM12.8 28.76C14.3467 28.76 15.4933 28.4133 16.24 27.72C16.9867 27 17.36 26 17.36 24.72C17.36 22 15.84 20.64 12.8 20.64H8.36V28.76H12.8ZM32.6959 14.4V44H27.0959V14.4H32.6959ZM59.1488 21.84V44H53.5088V41.2C52.7888 42.16 51.8421 42.92 50.6688 43.48C49.5221 44.0133 48.2688 44.28 46.9088 44.28C45.1754 44.28 43.6421 43.92 42.3088 43.2C40.9754 42.4533 39.9221 41.3733 39.1488 39.96C38.4021 38.52 38.0288 36.8133 38.0288 34.84V21.84H43.6288V34.04C43.6288 35.8 44.0688 37.16 44.9488 38.12C45.8288 39.0533 47.0288 39.52 48.5488 39.52C50.0954 39.52 51.3088 39.0533 52.1888 38.12C53.0688 37.16 53.5088 35.8 53.5088 34.04V21.84H59.1488ZM73.1541 44.36C71.3407 44.36 69.7141 44.04 68.2741 43.4C66.8341 42.7333 65.6874 41.84 64.8341 40.72C64.0074 39.6 63.5541 38.36 63.4741 37H69.1141C69.2207 37.8533 69.6341 38.56 70.3541 39.12C71.1007 39.68 72.0207 39.96 73.1141 39.96C74.1807 39.96 75.0074 39.7467 75.5941 39.32C76.2074 38.8933 76.5141 38.3467 76.5141 37.68C76.5141 36.96 76.1407 36.4267 75.3941 36.08C74.6741 35.7067 73.5141 35.3067 71.9141 34.88C70.2607 34.48 68.9007 34.0667 67.8341 33.64C66.7941 33.2133 65.8874 32.56 65.1141 31.68C64.3674 30.8 63.9941 29.6133 63.9941 28.12C63.9941 26.8933 64.3407 25.7733 65.0341 24.76C65.7541 23.7467 66.7674 22.9467 68.0741 22.36C69.4074 21.7733 70.9674 21.48 72.7541 21.48C75.3941 21.48 77.5007 22.1467 79.0741 23.48C80.6474 24.7867 81.5141 26.56 81.6741 28.8H76.3141C76.2341 27.92 75.8607 27.2267 75.1941 26.72C74.5541 26.1867 73.6874 25.92 72.5941 25.92C71.5807 25.92 70.7941 26.1067 70.2341 26.48C69.7007 26.8533 69.4341 27.3733 69.4341 28.04C69.4341 28.7867 69.8074 29.36 70.5541 29.76C71.3007 30.1333 72.4607 30.52 74.0341 30.92C75.6341 31.32 76.9541 31.7333 77.9941 32.16C79.0341 32.5867 79.9274 33.2533 80.6741 34.16C81.4474 35.04 81.8474 36.2133 81.8741 37.68C81.8741 38.96 81.5141 40.1067 80.7941 41.12C80.1007 42.1333 79.0874 42.9333 77.7541 43.52C76.4474 44.08 74.9141 44.36 73.1541 44.36ZM92.0709 25.04C92.7909 24.0267 93.7776 23.1867 95.0309 22.52C96.3109 21.8267 97.7643 21.48 99.3909 21.48C101.284 21.48 102.991 21.9467 104.511 22.88C106.058 23.8133 107.271 25.1467 108.151 26.88C109.058 28.5867 109.511 30.5733 109.511 32.84C109.511 35.1067 109.058 37.12 108.151 38.88C107.271 40.6133 106.058 41.96 104.511 42.92C102.991 43.88 101.284 44.36 99.3909 44.36C97.7643 44.36 96.3243 44.0267 95.0709 43.36C93.8443 42.6933 92.8443 41.8533 92.0709 40.84V54.56H86.4709V21.84H92.0709V25.04ZM103.791 32.84C103.791 31.5067 103.511 30.36 102.951 29.4C102.418 28.4133 101.698 27.6667 100.791 27.16C99.9109 26.6533 98.9509 26.4 97.9109 26.4C96.8976 26.4 95.9376 26.6667 95.0309 27.2C94.1509 27.7067 93.4309 28.4533 92.8709 29.44C92.3376 30.4267 92.0709 31.5867 92.0709 32.92C92.0709 34.2533 92.3376 35.4133 92.8709 36.4C93.4309 37.3867 94.1509 38.1467 95.0309 38.68C95.9376 39.1867 96.8976 39.44 97.9109 39.44C98.9509 39.44 99.9109 39.1733 100.791 38.64C101.698 38.1067 102.418 37.3467 102.951 36.36C103.511 35.3733 103.791 34.2 103.791 32.84ZM123.42 44.36C121.287 44.36 119.367 43.8933 117.66 42.96C115.954 42 114.607 40.6533 113.62 38.92C112.66 37.1867 112.18 35.1867 112.18 32.92C112.18 30.6533 112.674 28.6533 113.66 26.92C114.674 25.1867 116.047 23.8533 117.78 22.92C119.514 21.96 121.447 21.48 123.58 21.48C125.714 21.48 127.647 21.96 129.38 22.92C131.114 23.8533 132.474 25.1867 133.46 26.92C134.474 28.6533 134.98 30.6533 134.98 32.92C134.98 35.1867 134.46 37.1867 133.42 38.92C132.407 40.6533 131.02 42 129.26 42.96C127.527 43.8933 125.58 44.36 123.42 44.36ZM123.42 39.48C124.434 39.48 125.38 39.24 126.26 38.76C127.167 38.2533 127.887 37.5067 128.42 36.52C128.954 35.5333 129.22 34.3333 129.22 32.92C129.22 30.8133 128.66 29.2 127.54 28.08C126.447 26.9333 125.1 26.36 123.5 26.36C121.9 26.36 120.554 26.9333 119.46 28.08C118.394 29.2 117.86 30.8133 117.86 32.92C117.86 35.0267 118.38 36.6533 119.42 37.8C120.487 38.92 121.82 39.48 123.42 39.48ZM141.928 19.2C140.941 19.2 140.115 18.8933 139.448 18.28C138.808 17.64 138.488 16.8533 138.488 15.92C138.488 14.9867 138.808 14.2133 139.448 13.6C140.115 12.96 140.941 12.64 141.928 12.64C142.915 12.64 143.728 12.96 144.368 13.6C145.035 14.2133 145.368 14.9867 145.368 15.92C145.368 16.8533 145.035 17.64 144.368 18.28C143.728 18.8933 142.915 19.2 141.928 19.2ZM144.688 21.84V44H139.088V21.84H144.688ZM162.501 21.52C165.141 21.52 167.274 22.36 168.901 24.04C170.528 25.6933 171.341 28.0133 171.341 31V44H165.741V31.76C165.741 30 165.301 28.6533 164.421 27.72C163.541 26.76 162.341 26.28 160.821 26.28C159.274 26.28 158.048 26.76 157.141 27.72C156.261 28.6533 155.821 30 155.821 31.76V44H150.221V21.84H155.821V24.6C156.568 23.64 157.514 22.8933 158.661 22.36C159.834 21.8 161.114 21.52 162.501 21.52ZM183.186 26.44V37.16C183.186 37.9067 183.36 38.4533 183.706 38.8C184.08 39.12 184.693 39.28 185.546 39.28H188.146V44H184.626C179.906 44 177.546 41.7067 177.546 37.12V26.44H174.906V21.84H177.546V16.36H183.186V21.84H188.146V26.44H183.186Z" fill="#0C2256"/>
<ellipse cx="13" cy="25" rx="7" ry="6" fill="#0C2256"/>
<path d="M11.9444 19V24.5M11.9444 30V24.5M11.9444 24.5H17.5H6.5" stroke="white" stroke-width="3"/>
</svg>
