<svg width="360" height="459" viewBox="0 0 360 459" fill="none" xmlns="http://www.w3.org/2000/svg">
<path d="M23.4733 421.247C23.4733 421.247 -25.8162 334.691 25.5867 259.335C82.7158 175.584 28.739 81.881 85.6607 48.5232C165.927 1.47569 180.315 94.5242 270.202 71.4594C345.259 52.1998 343.668 202.683 321.477 256.386C303.092 300.909 373.971 322.982 337.687 421.045L23.4733 421.247Z" fill="#F0F0F0"/>
<g opacity="0.3">
<path d="M209.943 189.819C209.943 189.819 217.728 138.276 247.555 131.467C247.555 131.467 253.361 130.262 255.483 138.916C257.604 147.571 246.025 148.096 238.938 151.883C231.851 155.67 215.48 171.221 209.943 189.819Z" fill="#446BD9"/>
</g>
<g opacity="0.3">
<path d="M209.057 180.268C209.057 180.268 205.041 137.985 226.575 122.073C226.575 122.073 230.792 119.069 234.094 124.935C237.397 130.801 228.624 135.355 223.93 140.803C219.236 146.251 209.7 164.031 209.057 180.268Z" fill="#446BD9"/>
</g>
<path d="M88.1012 164.802C91.7529 150.66 109.404 156.962 109.404 156.962C109.404 156.962 120.188 183.428 123.69 184.385C127.191 185.342 117.717 159.305 117.717 159.305C124.614 159.089 141.449 172.26 141.449 172.26C141.449 172.26 138.75 201.609 142.317 201.361C145.885 201.113 143.733 175.209 143.733 175.209C150.214 178.579 155.831 189.718 155.831 189.718C162.635 207.619 145.384 218.592 145.384 218.592C145.384 218.592 144.61 228.791 148.615 240.98C148.615 240.98 149.545 243.249 150.41 247.034L148.604 246.852C148.492 246.18 148.362 245.526 148.216 244.897C148.215 244.888 148.215 244.879 148.216 244.87C148.113 244.477 147.963 243.917 147.777 243.238C147.305 241.712 146.991 240.589 146.797 239.782C145.394 234.999 143.336 228.747 141.815 227.327C141.999 226.992 142.149 226.625 142.262 226.237C142.12 226.585 141.97 226.946 141.815 227.327C138.234 236.034 122.688 235.988 114.202 232.72C105.717 229.452 109.648 226.523 114.58 221.621C119.512 216.719 129.155 219.097 132.14 217.291C135.125 215.484 131.042 212.948 125.267 212.976C119.492 213.004 116.194 220.529 106.852 220.802C97.5094 221.075 91.7225 196.62 91.7225 196.62C97.9834 199.966 109.731 196.307 110.337 193.347C110.942 190.386 93.9135 188.986 91.3109 187.814C88.7084 186.641 84.4479 178.941 88.1012 164.802Z" fill="#83ABE3"/>
<path d="M61.0505 387.07C54.6513 371.884 72.2145 355.466 72.2145 355.466C72.2145 355.466 97.6394 362.693 100.933 359.209C104.227 355.725 80.0828 347.254 80.0828 347.254C85.2053 338.792 106.611 328.598 106.611 328.598C106.611 328.598 123.617 354.24 126.176 349.76C128.735 345.28 110.267 328.1 110.267 328.1C117.402 322.877 128.925 324.623 128.925 324.623C145.753 330.106 139.72 359.225 139.72 359.225C139.72 359.225 145.755 367.946 156.728 372.423C156.728 372.423 158.913 373.036 162.033 374.886L160.537 376.919C160.012 376.541 159.491 376.196 158.968 375.891H158.96L158.936 375.877C158.599 375.703 158.127 375.455 157.543 375.159C156.194 374.565 155.22 374.085 154.549 373.699C150.371 371.739 144.74 369.442 142.656 370.186C142.58 369.707 142.456 369.244 142.29 368.809L142.656 370.186C145.579 381.14 133.687 399.791 125.086 407.514C116.486 415.237 117.588 408.258 118.171 398.589C118.755 388.92 127.66 379.141 128.76 374.163C129.86 369.185 125.075 372.162 120.689 379.134C116.304 386.106 118.665 395.809 111.72 407.257C104.774 418.704 84.4648 406.995 84.4648 406.995C91.4172 402.022 98.0054 385.099 96.543 382.111C95.0807 379.123 81.1741 398.531 78.4299 400.771C75.6857 403.011 67.4497 402.256 61.0505 387.07Z" fill="#3F76CA"/>
<g opacity="0.5">
<path d="M306.098 184.589C304.858 168.852 285.595 169.52 285.595 169.52C285.595 169.52 269.804 193.179 266.029 193.007C262.255 192.835 276.627 169.194 276.627 169.194C269.575 166.702 249.929 174.702 249.929 174.702C249.929 174.702 247.486 205.756 243.857 204.328C240.227 202.901 247.051 176.981 247.051 176.981C239.798 178.312 232.04 187.915 232.04 187.915C221.861 204.083 237.646 221.034 237.646 221.034C237.646 221.034 236.634 231.77 230.345 242.981C230.345 242.981 228.985 245.007 227.423 248.615L229.312 249.024C229.547 248.367 229.796 247.739 230.058 247.139L230.07 247.114C230.238 246.745 230.498 246.219 230.81 245.581C231.566 244.167 232.089 243.116 232.431 242.35C234.725 237.897 237.95 232.148 239.766 231.189C239.638 230.784 239.548 230.358 239.5 229.922C239.584 230.326 239.669 230.746 239.766 231.189C241.9 241.317 257.888 246.387 267.192 245.82C276.495 245.253 272.972 240.947 268.775 234.285C264.579 227.623 254.241 226.907 251.495 224.056C248.75 221.206 253.395 219.955 259.328 221.883C265.262 223.811 267.31 232.633 276.87 235.988C286.43 239.343 296.718 216.109 296.718 216.109C289.688 217.486 278.263 209.862 278.165 206.619C278.067 203.376 295.823 207.537 298.704 207.193C301.584 206.848 307.339 200.328 306.098 184.589Z" fill="#3F76CA"/>
</g>
<g opacity="0.2">
<path d="M316.216 376.038C328.977 361.791 313.406 331.203 313.406 331.203C313.406 331.203 280.486 324.111 277.703 317.892C274.92 311.672 306.713 316.476 306.713 316.476C303.399 303.151 281.137 277.649 281.137 277.649C281.137 277.649 252.15 297.868 250.576 290.907C249.002 283.947 276.915 274.785 276.915 274.785C270.104 264.095 255.695 259.048 255.695 259.048C233.674 255.19 231.173 293.868 231.173 293.868C231.173 293.868 221.016 300.581 206.348 299.146C206.348 299.146 203.523 298.529 199.161 298.811L200.275 302.18C201.03 302.05 201.772 301.951 202.499 301.919H202.543C203.004 301.919 203.656 301.919 204.458 301.919C206.278 302.04 207.602 302.066 208.538 302.022C214.205 302.252 221.731 302.997 223.981 305.182C224.234 304.659 224.535 304.183 224.878 303.766L223.981 305.182C216.806 316.508 224.824 346.263 232.557 360.852C240.291 375.441 241.305 366.394 243.858 354.426C246.412 342.458 238.987 325.215 239.336 318.562C239.685 311.909 244.396 318.44 247.326 329.521C250.256 340.601 244.16 350.775 248.675 368.818C253.191 386.861 281.459 385.402 281.459 385.402C274.785 375.125 272.547 350.747 275.303 348.062C278.059 345.377 288.241 377.289 290.783 381.677C293.325 386.065 303.455 390.288 316.216 376.038Z" fill="#3F76CA"/>
</g>
<path d="M120.054 269.128C119.448 271.345 118.397 273.917 117.296 274.555C116.046 275.281 115.525 276.307 115.525 276.307L114.513 275.51L113.309 274.555C113.309 274.555 113.337 274.374 113.396 274.078C113.455 273.782 113.545 273.371 113.666 272.915C113.775 272.705 113.845 272.464 113.87 272.21C113.895 271.956 113.874 271.698 113.809 271.457C113.583 270.645 113.629 269.392 114.015 268.627C114.402 267.863 114.774 265.979 115.007 266.036C115.57 266.167 114.73 268.756 114.972 269.236C115.021 269.364 115.105 269.461 115.205 269.508C115.306 269.555 115.416 269.548 115.513 269.488H115.521C117.102 268.543 119.02 263.443 119.868 264.132C120.183 264.384 120.312 268.185 120.054 269.128Z" fill="#FFB27D"/>
<path d="M114.585 272.215L116.565 274.108C116.599 274.14 116.636 274.163 116.676 274.175C116.716 274.187 116.757 274.188 116.797 274.179C116.837 274.169 116.876 274.149 116.91 274.119C116.944 274.089 116.974 274.05 116.997 274.005L122.071 264.184C122.118 264.092 122.136 263.979 122.122 263.868C122.108 263.758 122.062 263.659 121.995 263.595L120.015 261.701C119.947 261.637 119.864 261.612 119.782 261.631C119.701 261.65 119.629 261.713 119.581 261.804L114.509 271.625C114.462 271.717 114.444 271.83 114.458 271.941C114.472 272.051 114.518 272.15 114.585 272.215Z" fill="#1F3059"/>
<path d="M116.397 273.947L117.559 275.058C117.584 275.084 117.614 275.103 117.645 275.113C117.676 275.123 117.708 275.125 117.74 275.117C117.771 275.11 117.802 275.094 117.828 275.071C117.855 275.047 117.878 275.016 117.896 274.98L123.054 264.994C123.073 264.959 123.087 264.92 123.094 264.877C123.101 264.835 123.102 264.791 123.097 264.748C123.092 264.706 123.08 264.665 123.063 264.628C123.046 264.591 123.023 264.56 122.997 264.535L121.836 263.425C121.811 263.399 121.781 263.38 121.75 263.37C121.719 263.36 121.686 263.359 121.655 263.366C121.623 263.374 121.593 263.39 121.566 263.414C121.54 263.438 121.517 263.469 121.499 263.505L116.339 273.491C116.321 273.525 116.307 273.565 116.3 273.607C116.293 273.649 116.292 273.693 116.297 273.735C116.303 273.778 116.314 273.819 116.331 273.855C116.348 273.891 116.371 273.923 116.397 273.947Z" fill="#1C2C4B"/>
<path d="M86.1768 258.121C86.1768 258.121 96.2529 282.035 99.9079 286.434L113.312 272.839C113.312 272.839 115.257 273.649 116.108 276.307C116.108 276.307 107.969 298.871 99.9551 299.828C91.9418 300.785 80.6934 272.781 80.6934 272.781L86.1768 258.121Z" fill="#6085D6"/>
<path d="M63.3747 420.77H57.5524C56.8187 420.228 56.1659 418.989 55.9602 417.139C55.6751 414.587 53.5735 413.196 53.1181 411.108C52.6627 409.019 54.9937 406.084 54.9937 406.084L55.3833 405.396L55.7881 404.687L59.6523 405.924C59.6523 405.924 59.7484 407.177 59.8074 408.772C59.8578 409.986 59.8634 411.203 59.8243 412.418C59.7096 415.202 60.3961 418.199 62.2126 418.741C63.5569 419.145 63.4979 420.231 63.3747 420.77Z" fill="#1C2C4B"/>
<path d="M97.162 420.77H83.8475C83.2066 419.707 83.4427 415.783 83.5405 414.502C83.5608 414.243 83.5743 414.094 83.5743 414.094C83.5743 414.094 88.1198 409.146 88.7456 412.946C88.7641 413.063 88.7877 413.176 88.813 413.295C89.599 416.839 93.1275 418.45 95.1667 418.897C96.4908 419.179 96.9816 420.116 97.162 420.77Z" fill="#1C2C4B"/>
<path d="M94.6253 319.645C94.6253 319.645 93.9355 331.366 93.1225 345.455C92.0211 364.591 90.6937 388.098 90.5638 392.553C90.3361 400.285 89.4253 412.655 89.4253 412.655C89.4253 412.655 87.2681 415.592 82.9485 414.355C82.9485 414.355 79.0995 396.698 77.9998 378.014C77.983 377.709 77.9661 377.399 77.9492 377.096C76.9254 358.077 75.3349 318.027 75.3349 318.027L94.6253 319.645Z" fill="#F99746"/>
<path d="M94.6253 319.645C94.6253 319.645 93.9355 331.366 93.1225 345.455L77.9998 378.014C77.983 377.709 77.9661 377.399 77.9492 377.096C76.9254 358.077 75.3349 318.027 75.3349 318.027L94.6253 319.645Z" fill="#ED7D2B"/>
<path d="M91.4729 321.038C91.4729 321.038 79.0287 363.482 70.8467 383.43C62.6647 403.378 60.1077 408.944 60.1077 408.944C60.1077 408.944 55.4204 406.392 54.9937 404.652C54.9937 404.652 58.1225 366.144 63.5957 356.758C66.6907 351.452 70.3289 335.534 70.4992 329.968C70.6696 324.403 71.6074 313.385 71.6074 313.385L91.4729 321.038Z" fill="#F99746"/>
<path d="M88.3745 259.161C83.5118 261.249 75.0988 255.615 75.0988 255.615C75.0988 255.615 79.5819 251.025 79.3475 241.517L83.107 245.648L85.6607 248.448C85.6255 249.968 85.5286 251.485 85.3705 252.992C85.298 253.754 85.9288 255.431 86.4753 256.377C87.9495 258.91 88.3745 259.161 88.3745 259.161Z" fill="#FFB27D"/>
<path d="M85.6607 248.438C85.6255 249.959 85.5286 251.476 85.3706 252.982C82.5404 252.324 79.3306 246.097 79.3306 246.097C80.5514 245.582 81.8386 245.426 83.1071 245.638L85.6607 248.438Z" fill="#ED975D"/>
<path d="M87.1483 248.282C87.1483 248.282 79.1164 250.098 78.3625 243.275C77.6085 236.452 76.0635 232.091 81.159 230.652C86.2544 229.213 87.543 231.602 88.2008 233.799C88.8586 235.995 89.2179 247.63 87.1483 248.282Z" fill="#FFB27D"/>
<path d="M95.1617 320.623C95.0212 320.789 94.8419 320.883 94.6557 320.887C92.829 320.852 87.5042 322.234 82.9991 321.603C79.2007 321.107 75.8392 319.576 72.228 317.376C71.749 317.082 70.6459 316.281 70.6696 315.54C70.6864 314.741 70.7455 313.584 70.818 312.125C71.0744 307.055 71.5196 298.334 71.0845 288.273C71.0069 286.398 70.9647 284.539 70.9614 282.71C70.9226 269.073 72.9111 257.079 76.9035 253.019C77.2408 252.686 79.339 254.079 81.2635 255.372C82.884 256.458 84.728 256.762 86.4922 256.232L88.1789 258.254C90.2248 260.838 92.4647 264.35 93.4396 269.683C94.2677 274.223 94.7535 282.407 95.0216 290.889C95.1431 294.733 95.2409 298.609 95.2662 302.288V302.419C95.2898 302.784 95.2898 303.183 95.2898 303.548C95.3894 313.001 95.2831 320.488 95.1617 320.623Z" fill="#446BD9"/>
<path d="M70.8129 312.136C71.0693 307.066 71.5146 298.345 71.0794 288.284C71.0018 286.409 70.9597 284.55 70.9563 282.721C72.6194 277.231 73.9788 273.25 73.9788 273.25H78.1719C78.1719 273.25 81.245 301.818 70.8129 312.136Z" fill="#6085D6"/>
<path d="M49.3434 344.516L67.2221 347.984C68.344 348.196 69.4822 347.796 70.3882 346.871C71.2942 345.946 71.8944 344.57 72.0577 343.045L73.1608 332.502C73.3179 330.976 73.0244 329.427 72.3445 328.194C71.6646 326.962 70.6537 326.146 69.5328 325.924L51.6541 322.457C50.5315 322.242 49.392 322.64 48.4848 323.565C47.5777 324.49 46.9767 325.867 46.8134 327.393L45.7103 337.95C45.5562 339.476 45.8516 341.022 46.5323 342.252C47.2129 343.482 48.2234 344.296 49.3434 344.516Z" fill="#1C2C4B"/>
<path d="M70.538 329.066C70.2855 328.201 69.8848 327.43 69.3694 326.818C68.854 326.206 68.2387 325.77 67.5745 325.546C67.4396 325.502 67.303 325.463 67.1613 325.436L63.6008 324.747L63.8386 322.473C63.8906 321.967 63.7936 321.454 63.5686 321.046C63.3436 320.637 63.0089 320.366 62.6377 320.292L61.7083 320.113L57.969 319.388L57.2943 319.257C56.9229 319.186 56.5458 319.318 56.2457 319.624C55.9457 319.931 55.7471 320.386 55.6937 320.891L55.4558 323.168L49.3096 321.977C48.1832 321.761 47.0399 322.161 46.1296 323.089C45.2193 324.017 44.6161 325.398 44.452 326.93L43.3371 337.594C43.1796 339.127 43.4746 340.683 44.1576 341.921C44.8407 343.158 45.8562 343.978 46.982 344.199L64.832 347.66C65.1403 347.721 65.4525 347.735 65.7631 347.702C66.2442 347.651 66.7154 347.489 67.1562 347.222C67.8253 346.823 68.4088 346.199 68.8514 345.408C69.2941 344.618 69.5814 343.687 69.6862 342.703L70.8028 332.038C70.9079 331.033 70.8165 330.008 70.538 329.066ZM56.569 321.07C56.5852 320.919 56.6367 320.778 56.7158 320.668C56.795 320.559 56.8978 320.487 57.0093 320.462C57.0618 320.451 57.1153 320.451 57.1678 320.462L57.9622 320.616L60.9038 321.188L62.5078 321.497C62.6463 321.525 62.7712 321.625 62.8553 321.778C62.9393 321.93 62.9757 322.121 62.9564 322.31L62.7186 324.586L56.3312 323.347L56.569 321.07Z" fill="#1F3059"/>
<path d="M62.9328 313.118C62.9328 313.118 61.995 314.821 61.9563 315.501C61.7049 320.111 63.2533 320.749 59.2441 323.304C59.2441 323.304 57.5338 324.192 57.5051 322.386C57.4765 320.579 58.6858 320.55 58.4699 318.025C58.2135 315.106 58.2388 315.078 59.6506 313.554L60.5816 311.457L62.9328 313.118Z" fill="#FFB27D"/>
<path d="M60.5445 314.415C61.5837 314.655 62.6397 314.732 63.6918 314.645C63.6918 314.645 68.175 295.805 68.7518 294.084C69.3287 292.362 82.0647 272.006 82.0647 272.006L76.7584 253.937C76.7584 253.937 62.98 285.25 61.5784 289.65C59.266 296.92 58.4648 313.222 58.4648 313.222C59.0933 313.802 59.8001 314.208 60.5445 314.415Z" fill="#446BD9"/>
<path d="M78.354 242.618C78.354 242.618 79.1771 242.43 79.0456 240.885C78.914 239.341 78.914 237.321 79.8366 237.698C80.7592 238.074 80.8048 239.075 81.1859 238.492C81.5671 237.909 81.5722 235.433 84.3198 235.26C87.0674 235.088 88.1822 236.387 89.4591 235.623C90.7359 234.859 90.8084 232.229 90.8084 232.229C90.8084 232.229 90.4457 233.17 89.8959 233.468C89.8959 233.468 92.0278 229.502 89.5586 226.783C87.0893 224.063 84.5761 225.844 83.1492 225.961C80.0036 226.22 77.9712 226.477 76.944 229.289C75.9168 232.1 76.33 239.91 78.354 242.618Z" fill="#1F3059"/>
<path d="M61.4519 315.145C61.4519 315.145 62.356 316.428 62.4133 316.962C62.5972 318.675 63.0171 319.416 62.8063 319.602C62.3678 319.99 61.7943 318.72 61.5126 317.582C61.231 316.444 61.4519 315.145 61.4519 315.145Z" fill="#FFB27D"/>
<path d="M228.209 164.657H140.948C135.464 164.657 131.018 170.706 131.018 178.168V405.304C131.018 412.766 135.464 418.815 140.948 418.815H228.209C233.693 418.815 238.139 412.766 238.139 405.304V178.168C238.139 170.706 233.693 164.657 228.209 164.657Z" fill="#6376E5"/>
<path d="M228.209 420.511H140.946C137.983 420.506 135.143 418.902 133.048 416.051C130.953 413.2 129.775 409.335 129.772 405.304V178.168C129.776 174.137 130.954 170.272 133.049 167.422C135.144 164.572 137.984 162.968 140.946 162.963H228.209C231.172 162.968 234.012 164.572 236.107 167.422C238.201 170.272 239.38 174.137 239.383 178.168V405.297C239.382 409.33 238.204 413.196 236.109 416.049C234.014 418.901 231.173 420.506 228.209 420.511ZM140.946 166.353C138.644 166.357 136.438 167.603 134.81 169.818C133.182 172.033 132.266 175.036 132.263 178.168V405.297C132.266 408.429 133.182 411.432 134.809 413.647C136.437 415.862 138.644 417.108 140.946 417.112H228.209C230.513 417.111 232.722 415.866 234.352 413.651C235.981 411.436 236.898 408.431 236.901 405.297V178.168C236.898 175.036 235.982 172.033 234.354 169.818C232.726 167.603 230.52 166.357 228.218 166.353H140.946Z" fill="#1F3059"/>
<g opacity="0.9">
<path d="M219.806 231.536H149.351V327.402H219.806V231.536Z" fill="white"/>
</g>
<path d="M159.213 317.341H156.413V321.151H159.213V317.341Z" fill="#1F3059"/>
<path d="M162.013 317.341H159.213V321.151H162.013V317.341Z" fill="#1F3059"/>
<path d="M164.813 317.341H162.013V321.151H164.813V317.341Z" fill="#1F3059"/>
<path d="M167.612 317.341H164.812V321.151H167.612V317.341Z" fill="#1F3059"/>
<path d="M170.412 317.341H167.612V321.151H170.412V317.341Z" fill="#1F3059"/>
<path d="M176.012 317.341H173.212V321.151H176.012V317.341Z" fill="#1F3059"/>
<path d="M178.812 317.341H176.012V321.151H178.812V317.341Z" fill="#1F3059"/>
<path d="M187.211 317.341H184.412V321.151H187.211V317.341Z" fill="#1F3059"/>
<path d="M192.977 317.341H190.011V321.151H192.977V317.341Z" fill="#1F3059"/>
<path d="M195.778 317.341H192.978V321.151H195.778V317.341Z" fill="#1F3059"/>
<path d="M201.378 317.341H198.578V321.151H201.378V317.341Z" fill="#1F3059"/>
<path d="M204.178 317.341H201.378V321.151H204.178V317.341Z" fill="#1F3059"/>
<path d="M206.977 317.341H204.178V321.151H206.977V317.341Z" fill="#1F3059"/>
<path d="M209.777 317.341H206.978V321.151H209.777V317.341Z" fill="#1F3059"/>
<path d="M212.577 317.341H209.777V321.151H212.577V317.341Z" fill="#1F3059"/>
<path d="M215.542 317.341H212.577V321.151H215.542V317.341Z" fill="#1F3059"/>
<path d="M156.413 317.341H153.613V321.151H156.413V317.341Z" fill="#1F3059"/>
<path d="M170.412 313.531H167.612V317.341H170.412V313.531Z" fill="#1F3059"/>
<path d="M178.812 313.531H176.012V317.341H178.812V313.531Z" fill="#1F3059"/>
<path d="M184.412 313.531H181.612V317.341H184.412V313.531Z" fill="#1F3059"/>
<path d="M187.211 313.531H184.412V317.341H187.211V313.531Z" fill="#1F3059"/>
<path d="M190.011 313.531H187.211V317.341H190.011V313.531Z" fill="#1F3059"/>
<path d="M192.977 313.531H190.011V317.341H192.977V313.531Z" fill="#1F3059"/>
<path d="M201.378 313.531H198.578V317.341H201.378V313.531Z" fill="#1F3059"/>
<path d="M215.542 313.531H212.577V317.341H215.542V313.531Z" fill="#1F3059"/>
<path d="M156.413 313.531H153.613V317.341H156.413V313.531Z" fill="#1F3059"/>
<path d="M162.013 309.722H159.213V313.531H162.013V309.722Z" fill="#1F3059"/>
<path d="M164.813 309.722H162.013V313.531H164.813V309.722Z" fill="#1F3059"/>
<path d="M170.412 309.722H167.612V313.531H170.412V309.722Z" fill="#1F3059"/>
<path d="M176.012 309.722H173.212V313.531H176.012V309.722Z" fill="#1F3059"/>
<path d="M178.812 309.722H176.012V313.531H178.812V309.722Z" fill="#1F3059"/>
<path d="M181.612 309.722H178.812V313.531H181.612V309.722Z" fill="#1F3059"/>
<path d="M187.211 309.722H184.412V313.531H187.211V309.722Z" fill="#1F3059"/>
<path d="M190.011 309.722H187.211V313.531H190.011V309.722Z" fill="#1F3059"/>
<path d="M192.977 309.722H190.011V313.531H192.977V309.722Z" fill="#1F3059"/>
<path d="M195.778 309.722H192.978V313.531H195.778V309.722Z" fill="#1F3059"/>
<path d="M201.378 309.722H198.578V313.531H201.378V309.722Z" fill="#1F3059"/>
<path d="M206.977 309.722H204.178V313.531H206.977V309.722Z" fill="#1F3059"/>
<path d="M209.777 309.722H206.978V313.531H209.777V309.722Z" fill="#1F3059"/>
<path d="M215.542 309.722H212.577V313.531H215.542V309.722Z" fill="#1F3059"/>
<path d="M156.413 309.722H153.613V313.531H156.413V309.722Z" fill="#1F3059"/>
<path d="M162.013 305.912H159.213V309.722H162.013V305.912Z" fill="#1F3059"/>
<path d="M164.813 305.912H162.013V309.722H164.813V305.912Z" fill="#1F3059"/>
<path d="M170.412 305.912H167.612V309.722H170.412V305.912Z" fill="#1F3059"/>
<path d="M176.012 305.912H173.212V309.722H176.012V305.912Z" fill="#1F3059"/>
<path d="M181.612 305.912H178.812V309.722H181.612V305.912Z" fill="#1F3059"/>
<path d="M187.211 305.912H184.412V309.722H187.211V305.912Z" fill="#1F3059"/>
<path d="M201.378 305.912H198.578V309.722H201.378V305.912Z" fill="#1F3059"/>
<path d="M206.977 305.912H204.178V309.722H206.977V305.912Z" fill="#1F3059"/>
<path d="M209.777 305.912H206.978V309.722H209.777V305.912Z" fill="#1F3059"/>
<path d="M215.542 305.912H212.577V309.722H215.542V305.912Z" fill="#1F3059"/>
<path d="M156.413 305.912H153.613V309.722H156.413V305.912Z" fill="#1F3059"/>
<path d="M170.412 302.102H167.612V305.912H170.412V302.102Z" fill="#1F3059"/>
<path d="M176.012 302.102H173.212V305.912H176.012V302.102Z" fill="#1F3059"/>
<path d="M178.812 302.102H176.012V305.912H178.812V302.102Z" fill="#1F3059"/>
<path d="M181.612 302.102H178.812V305.912H181.612V302.102Z" fill="#1F3059"/>
<path d="M187.211 302.102H184.412V305.912H187.211V302.102Z" fill="#1F3059"/>
<path d="M190.011 302.102H187.211V305.912H190.011V302.102Z" fill="#1F3059"/>
<path d="M195.778 302.102H192.978V305.912H195.778V302.102Z" fill="#1F3059"/>
<path d="M201.378 302.102H198.578V305.912H201.378V302.102Z" fill="#1F3059"/>
<path d="M215.542 302.102H212.577V305.912H215.542V302.102Z" fill="#1F3059"/>
<path d="M156.413 302.102H153.613V305.912H156.413V302.102Z" fill="#1F3059"/>
<path d="M159.213 298.293H156.413V302.102H159.213V298.293Z" fill="#1F3059"/>
<path d="M162.013 298.293H159.213V302.102H162.013V298.293Z" fill="#1F3059"/>
<path d="M164.813 298.293H162.013V302.102H164.813V298.293Z" fill="#1F3059"/>
<path d="M167.612 298.293H164.812V302.102H167.612V298.293Z" fill="#1F3059"/>
<path d="M170.412 298.293H167.612V302.102H170.412V298.293Z" fill="#1F3059"/>
<path d="M176.012 298.293H173.212V302.102H176.012V298.293Z" fill="#1F3059"/>
<path d="M181.612 298.293H178.812V302.102H181.612V298.293Z" fill="#1F3059"/>
<path d="M184.412 298.293H181.612V302.102H184.412V298.293Z" fill="#1F3059"/>
<path d="M190.011 298.293H187.211V302.102H190.011V298.293Z" fill="#1F3059"/>
<path d="M201.378 298.293H198.578V302.102H201.378V298.293Z" fill="#1F3059"/>
<path d="M204.178 298.293H201.378V302.102H204.178V298.293Z" fill="#1F3059"/>
<path d="M206.977 298.293H204.178V302.102H206.977V298.293Z" fill="#1F3059"/>
<path d="M209.777 298.293H206.978V302.102H209.777V298.293Z" fill="#1F3059"/>
<path d="M212.577 298.293H209.777V302.102H212.577V298.293Z" fill="#1F3059"/>
<path d="M215.542 298.293H212.577V302.102H215.542V298.293Z" fill="#1F3059"/>
<path d="M156.413 298.293H153.613V302.102H156.413V298.293Z" fill="#1F3059"/>
<path d="M184.412 294.483H181.612V298.293H184.412V294.483Z" fill="#1F3059"/>
<path d="M187.211 294.483H184.412V298.293H187.211V294.483Z" fill="#1F3059"/>
<path d="M190.011 294.483H187.211V298.293H190.011V294.483Z" fill="#1F3059"/>
<path d="M195.778 294.483H192.978V298.293H195.778V294.483Z" fill="#1F3059"/>
<path d="M159.213 290.673H156.413V294.483H159.213V290.673Z" fill="#1F3059"/>
<path d="M162.013 290.673H159.213V294.483H162.013V290.673Z" fill="#1F3059"/>
<path d="M164.813 290.673H162.013V294.483H164.813V290.673Z" fill="#1F3059"/>
<path d="M167.612 290.673H164.812V294.483H167.612V290.673Z" fill="#1F3059"/>
<path d="M176.012 290.673H173.212V294.483H176.012V290.673Z" fill="#1F3059"/>
<path d="M178.812 290.673H176.012V294.483H178.812V290.673Z" fill="#1F3059"/>
<path d="M181.612 290.673H178.812V294.483H181.612V290.673Z" fill="#1F3059"/>
<path d="M187.211 290.673H184.412V294.483H187.211V290.673Z" fill="#1F3059"/>
<path d="M190.011 290.673H187.211V294.483H190.011V290.673Z" fill="#1F3059"/>
<path d="M192.977 290.673H190.011V294.483H192.977V290.673Z" fill="#1F3059"/>
<path d="M195.778 290.673H192.978V294.483H195.778V290.673Z" fill="#1F3059"/>
<path d="M198.578 290.673H195.778V294.483H198.578V290.673Z" fill="#1F3059"/>
<path d="M201.378 290.673H198.578V294.483H201.378V290.673Z" fill="#1F3059"/>
<path d="M204.178 290.673H201.378V294.483H204.178V290.673Z" fill="#1F3059"/>
<path d="M206.977 290.673H204.178V294.483H206.977V290.673Z" fill="#1F3059"/>
<path d="M212.577 290.673H209.777V294.483H212.577V290.673Z" fill="#1F3059"/>
<path d="M215.542 290.673H212.577V294.483H215.542V290.673Z" fill="#1F3059"/>
<path d="M162.013 286.864H159.213V290.673H162.013V286.864Z" fill="#1F3059"/>
<path d="M164.813 286.864H162.013V290.673H164.813V286.864Z" fill="#1F3059"/>
<path d="M173.212 286.864H170.412V290.673H173.212V286.864Z" fill="#1F3059"/>
<path d="M176.012 286.864H173.212V290.673H176.012V286.864Z" fill="#1F3059"/>
<path d="M181.612 286.864H178.812V290.673H181.612V286.864Z" fill="#1F3059"/>
<path d="M190.011 286.864H187.211V290.673H190.011V286.864Z" fill="#1F3059"/>
<path d="M195.778 286.864H192.978V290.673H195.778V286.864Z" fill="#1F3059"/>
<path d="M198.578 286.864H195.778V290.673H198.578V286.864Z" fill="#1F3059"/>
<path d="M204.178 286.864H201.378V290.673H204.178V286.864Z" fill="#1F3059"/>
<path d="M206.977 286.864H204.178V290.673H206.977V286.864Z" fill="#1F3059"/>
<path d="M159.213 283.054H156.413V286.863H159.213V283.054Z" fill="#1F3059"/>
<path d="M164.813 283.054H162.013V286.863H164.813V283.054Z" fill="#1F3059"/>
<path d="M167.612 283.054H164.812V286.863H167.612V283.054Z" fill="#1F3059"/>
<path d="M170.412 283.054H167.612V286.863H170.412V283.054Z" fill="#1F3059"/>
<path d="M173.212 283.054H170.412V286.863H173.212V283.054Z" fill="#1F3059"/>
<path d="M178.812 283.054H176.012V286.863H178.812V283.054Z" fill="#1F3059"/>
<path d="M181.612 283.054H178.812V286.863H181.612V283.054Z" fill="#1F3059"/>
<path d="M184.412 283.054H181.612V286.863H184.412V283.054Z" fill="#1F3059"/>
<path d="M187.211 283.054H184.412V286.863H187.211V283.054Z" fill="#1F3059"/>
<path d="M190.011 283.054H187.211V286.863H190.011V283.054Z" fill="#1F3059"/>
<path d="M192.977 283.054H190.011V286.863H192.977V283.054Z" fill="#1F3059"/>
<path d="M206.977 283.054H204.178V286.863H206.977V283.054Z" fill="#1F3059"/>
<path d="M209.777 283.054H206.978V286.863H209.777V283.054Z" fill="#1F3059"/>
<path d="M215.542 283.054H212.577V286.863H215.542V283.054Z" fill="#1F3059"/>
<path d="M156.413 283.054H153.613V286.863H156.413V283.054Z" fill="#1F3059"/>
<path d="M159.213 279.244H156.413V283.054H159.213V279.244Z" fill="#1F3059"/>
<path d="M162.013 279.244H159.213V283.054H162.013V279.244Z" fill="#1F3059"/>
<path d="M164.813 279.244H162.013V283.054H164.813V279.244Z" fill="#1F3059"/>
<path d="M176.012 279.244H173.212V283.054H176.012V279.244Z" fill="#1F3059"/>
<path d="M178.812 279.244H176.012V283.054H178.812V279.244Z" fill="#1F3059"/>
<path d="M190.011 279.244H187.211V283.054H190.011V279.244Z" fill="#1F3059"/>
<path d="M198.578 279.244H195.778V283.054H198.578V279.244Z" fill="#1F3059"/>
<path d="M201.378 279.244H198.578V283.054H201.378V279.244Z" fill="#1F3059"/>
<path d="M206.977 279.244H204.178V283.054H206.977V279.244Z" fill="#1F3059"/>
<path d="M209.777 279.244H206.978V283.054H209.777V279.244Z" fill="#1F3059"/>
<path d="M212.577 279.244H209.777V283.054H212.577V279.244Z" fill="#1F3059"/>
<path d="M215.542 279.244H212.577V283.054H215.542V279.244Z" fill="#1F3059"/>
<path d="M156.413 279.244H153.613V283.054H156.413V279.244Z" fill="#1F3059"/>
<path d="M164.813 275.434H162.013V279.244H164.813V275.434Z" fill="#1F3059"/>
<path d="M167.612 275.434H164.812V279.244H167.612V275.434Z" fill="#1F3059"/>
<path d="M170.412 275.434H167.612V279.244H170.412V275.434Z" fill="#1F3059"/>
<path d="M173.212 275.434H170.412V279.244H173.212V275.434Z" fill="#1F3059"/>
<path d="M176.012 275.434H173.212V279.244H176.012V275.434Z" fill="#1F3059"/>
<path d="M178.812 275.434H176.012V279.244H178.812V275.434Z" fill="#1F3059"/>
<path d="M187.211 275.434H184.412V279.244H187.211V275.434Z" fill="#1F3059"/>
<path d="M195.778 275.434H192.978V279.244H195.778V275.434Z" fill="#1F3059"/>
<path d="M198.578 275.434H195.778V279.244H198.578V275.434Z" fill="#1F3059"/>
<path d="M209.777 275.434H206.978V279.244H209.777V275.434Z" fill="#1F3059"/>
<path d="M156.413 275.434H153.613V279.244H156.413V275.434Z" fill="#1F3059"/>
<path d="M159.213 271.625H156.413V275.434H159.213V271.625Z" fill="#1F3059"/>
<path d="M162.013 271.625H159.213V275.434H162.013V271.625Z" fill="#1F3059"/>
<path d="M164.813 271.625H162.013V275.434H164.813V271.625Z" fill="#1F3059"/>
<path d="M167.612 271.625H164.812V275.434H167.612V271.625Z" fill="#1F3059"/>
<path d="M173.212 271.625H170.412V275.434H173.212V271.625Z" fill="#1F3059"/>
<path d="M178.812 271.625H176.012V275.434H178.812V271.625Z" fill="#1F3059"/>
<path d="M181.612 271.625H178.812V275.434H181.612V271.625Z" fill="#1F3059"/>
<path d="M187.211 271.625H184.412V275.434H187.211V271.625Z" fill="#1F3059"/>
<path d="M190.011 271.625H187.211V275.434H190.011V271.625Z" fill="#1F3059"/>
<path d="M192.977 271.625H190.011V275.434H192.977V271.625Z" fill="#1F3059"/>
<path d="M195.778 271.625H192.978V275.434H195.778V271.625Z" fill="#1F3059"/>
<path d="M201.378 271.625H198.578V275.434H201.378V271.625Z" fill="#1F3059"/>
<path d="M204.178 271.625H201.378V275.434H204.178V271.625Z" fill="#1F3059"/>
<path d="M206.977 271.625H204.178V275.434H206.977V271.625Z" fill="#1F3059"/>
<path d="M209.777 271.625H206.978V275.434H209.777V271.625Z" fill="#1F3059"/>
<path d="M215.542 271.625H212.577V275.434H215.542V271.625Z" fill="#1F3059"/>
<path d="M159.213 267.815H156.413V271.625H159.213V267.815Z" fill="#1F3059"/>
<path d="M164.813 267.815H162.013V271.625H164.813V267.815Z" fill="#1F3059"/>
<path d="M170.412 267.815H167.612V271.625H170.412V267.815Z" fill="#1F3059"/>
<path d="M173.212 267.815H170.412V271.625H173.212V267.815Z" fill="#1F3059"/>
<path d="M181.612 267.815H178.812V271.625H181.612V267.815Z" fill="#1F3059"/>
<path d="M184.412 267.815H181.612V271.625H184.412V267.815Z" fill="#1F3059"/>
<path d="M187.211 267.815H184.412V271.625H187.211V267.815Z" fill="#1F3059"/>
<path d="M192.977 267.815H190.011V271.625H192.977V267.815Z" fill="#1F3059"/>
<path d="M195.778 267.815H192.978V271.625H195.778V267.815Z" fill="#1F3059"/>
<path d="M198.578 267.815H195.778V271.625H198.578V267.815Z" fill="#1F3059"/>
<path d="M204.178 267.815H201.378V271.625H204.178V267.815Z" fill="#1F3059"/>
<path d="M209.777 267.815H206.978V271.625H209.777V267.815Z" fill="#1F3059"/>
<path d="M212.577 267.815H209.777V271.625H212.577V267.815Z" fill="#1F3059"/>
<path d="M215.542 267.815H212.577V271.625H215.542V267.815Z" fill="#1F3059"/>
<path d="M156.413 267.815H153.613V271.625H156.413V267.815Z" fill="#1F3059"/>
<path d="M159.213 264.005H156.413V267.815H159.213V264.005Z" fill="#1F3059"/>
<path d="M170.412 264.005H167.612V267.815H170.412V264.005Z" fill="#1F3059"/>
<path d="M173.212 264.005H170.412V267.815H173.212V264.005Z" fill="#1F3059"/>
<path d="M178.812 264.005H176.012V267.815H178.812V264.005Z" fill="#1F3059"/>
<path d="M181.612 264.005H178.812V267.815H181.612V264.005Z" fill="#1F3059"/>
<path d="M187.211 264.005H184.412V267.815H187.211V264.005Z" fill="#1F3059"/>
<path d="M190.011 264.005H187.211V267.815H190.011V264.005Z" fill="#1F3059"/>
<path d="M195.778 264.005H192.978V267.815H195.778V264.005Z" fill="#1F3059"/>
<path d="M198.578 264.005H195.778V267.815H198.578V264.005Z" fill="#1F3059"/>
<path d="M201.378 264.005H198.578V267.815H201.378V264.005Z" fill="#1F3059"/>
<path d="M204.178 264.005H201.378V267.815H204.178V264.005Z" fill="#1F3059"/>
<path d="M206.977 264.005H204.178V267.815H206.977V264.005Z" fill="#1F3059"/>
<path d="M209.777 264.005H206.978V267.815H209.777V264.005Z" fill="#1F3059"/>
<path d="M156.413 264.005H153.613V267.815H156.413V264.005Z" fill="#1F3059"/>
<path d="M178.812 260.196H176.012V264.005H178.812V260.196Z" fill="#1F3059"/>
<path d="M184.412 260.196H181.612V264.005H184.412V260.196Z" fill="#1F3059"/>
<path d="M187.211 260.196H184.412V264.005H187.211V260.196Z" fill="#1F3059"/>
<path d="M192.977 260.196H190.011V264.005H192.977V260.196Z" fill="#1F3059"/>
<path d="M195.778 260.196H192.978V264.005H195.778V260.196Z" fill="#1F3059"/>
<path d="M198.578 260.196H195.778V264.005H198.578V260.196Z" fill="#1F3059"/>
<path d="M159.213 256.386H156.413V260.196H159.213V256.386Z" fill="#1F3059"/>
<path d="M162.013 256.386H159.213V260.196H162.013V256.386Z" fill="#1F3059"/>
<path d="M164.813 256.386H162.013V260.196H164.813V256.386Z" fill="#1F3059"/>
<path d="M167.612 256.386H164.812V260.196H167.612V256.386Z" fill="#1F3059"/>
<path d="M170.412 256.386H167.612V260.196H170.412V256.386Z" fill="#1F3059"/>
<path d="M176.012 256.386H173.212V260.196H176.012V256.386Z" fill="#1F3059"/>
<path d="M178.812 256.386H176.012V260.196H178.812V256.386Z" fill="#1F3059"/>
<path d="M187.211 256.386H184.412V260.196H187.211V256.386Z" fill="#1F3059"/>
<path d="M198.578 256.386H195.778V260.196H198.578V256.386Z" fill="#1F3059"/>
<path d="M201.378 256.386H198.578V260.196H201.378V256.386Z" fill="#1F3059"/>
<path d="M206.977 256.386H204.178V260.196H206.977V256.386Z" fill="#1F3059"/>
<path d="M215.542 256.386H212.577V260.196H215.542V256.386Z" fill="#1F3059"/>
<path d="M156.413 256.386H153.613V260.196H156.413V256.386Z" fill="#1F3059"/>
<path d="M170.412 252.576H167.612V256.386H170.412V252.576Z" fill="#1F3059"/>
<path d="M192.977 252.576H190.011V256.386H192.977V252.576Z" fill="#1F3059"/>
<path d="M195.778 252.576H192.978V256.386H195.778V252.576Z" fill="#1F3059"/>
<path d="M201.378 252.576H198.578V256.386H201.378V252.576Z" fill="#1F3059"/>
<path d="M204.178 252.576H201.378V256.386H204.178V252.576Z" fill="#1F3059"/>
<path d="M209.777 252.576H206.978V256.386H209.777V252.576Z" fill="#1F3059"/>
<path d="M212.577 252.576H209.777V256.386H212.577V252.576Z" fill="#1F3059"/>
<path d="M215.542 252.576H212.577V256.386H215.542V252.576Z" fill="#1F3059"/>
<path d="M156.413 252.576H153.613V256.386H156.413V252.576Z" fill="#1F3059"/>
<path d="M162.013 248.767H159.213V252.576H162.013V248.767Z" fill="#1F3059"/>
<path d="M164.813 248.767H162.013V252.576H164.813V248.767Z" fill="#1F3059"/>
<path d="M170.412 248.767H167.612V252.576H170.412V248.767Z" fill="#1F3059"/>
<path d="M176.012 248.767H173.212V252.576H176.012V248.767Z" fill="#1F3059"/>
<path d="M178.812 248.767H176.012V252.576H178.812V248.767Z" fill="#1F3059"/>
<path d="M184.412 248.767H181.612V252.576H184.412V248.767Z" fill="#1F3059"/>
<path d="M187.211 248.767H184.412V252.576H187.211V248.767Z" fill="#1F3059"/>
<path d="M192.977 248.767H190.011V252.576H192.977V248.767Z" fill="#1F3059"/>
<path d="M204.178 248.767H201.378V252.576H204.178V248.767Z" fill="#1F3059"/>
<path d="M206.977 248.767H204.178V252.576H206.977V248.767Z" fill="#1F3059"/>
<path d="M209.777 248.767H206.978V252.576H209.777V248.767Z" fill="#1F3059"/>
<path d="M156.413 248.767H153.613V252.576H156.413V248.767Z" fill="#1F3059"/>
<path d="M162.013 244.955H159.213V248.764H162.013V244.955Z" fill="#1F3059"/>
<path d="M164.813 244.955H162.013V248.764H164.813V244.955Z" fill="#1F3059"/>
<path d="M170.412 244.955H167.612V248.764H170.412V244.955Z" fill="#1F3059"/>
<path d="M176.012 244.955H173.212V248.764H176.012V244.955Z" fill="#1F3059"/>
<path d="M181.612 244.955H178.812V248.764H181.612V244.955Z" fill="#1F3059"/>
<path d="M184.412 244.955H181.612V248.764H184.412V244.955Z" fill="#1F3059"/>
<path d="M187.211 244.955H184.412V248.764H187.211V244.955Z" fill="#1F3059"/>
<path d="M190.011 244.955H187.211V248.764H190.011V244.955Z" fill="#1F3059"/>
<path d="M192.977 244.955H190.011V248.764H192.977V244.955Z" fill="#1F3059"/>
<path d="M198.578 244.955H195.778V248.764H198.578V244.955Z" fill="#1F3059"/>
<path d="M201.378 244.955H198.578V248.764H201.378V244.955Z" fill="#1F3059"/>
<path d="M204.178 244.955H201.378V248.764H204.178V244.955Z" fill="#1F3059"/>
<path d="M209.777 244.955H206.978V248.764H209.777V244.955Z" fill="#1F3059"/>
<path d="M212.577 244.955H209.777V248.764H212.577V244.955Z" fill="#1F3059"/>
<path d="M215.542 244.955H212.577V248.764H215.542V244.955Z" fill="#1F3059"/>
<path d="M156.413 244.955H153.613V248.764H156.413V244.955Z" fill="#1F3059"/>
<path d="M170.412 241.145H167.612V244.955H170.412V241.145Z" fill="#1F3059"/>
<path d="M181.612 241.145H178.812V244.955H181.612V241.145Z" fill="#1F3059"/>
<path d="M184.412 241.145H181.612V244.955H184.412V241.145Z" fill="#1F3059"/>
<path d="M190.011 241.145H187.211V244.955H190.011V241.145Z" fill="#1F3059"/>
<path d="M192.977 241.145H190.011V244.955H192.977V241.145Z" fill="#1F3059"/>
<path d="M195.778 241.145H192.978V244.955H195.778V241.145Z" fill="#1F3059"/>
<path d="M198.578 241.145H195.778V244.955H198.578V241.145Z" fill="#1F3059"/>
<path d="M212.577 241.145H209.777V244.955H212.577V241.145Z" fill="#1F3059"/>
<path d="M156.413 241.145H153.613V244.955H156.413V241.145Z" fill="#1F3059"/>
<path d="M159.213 237.335H156.413V241.145H159.213V237.335Z" fill="#1F3059"/>
<path d="M162.013 237.335H159.213V241.145H162.013V237.335Z" fill="#1F3059"/>
<path d="M164.813 237.335H162.013V241.145H164.813V237.335Z" fill="#1F3059"/>
<path d="M167.612 237.335H164.812V241.145H167.612V237.335Z" fill="#1F3059"/>
<path d="M170.412 237.335H167.612V241.145H170.412V237.335Z" fill="#1F3059"/>
<path d="M176.012 237.335H173.212V241.145H176.012V237.335Z" fill="#1F3059"/>
<path d="M178.812 237.335H176.012V241.145H178.812V237.335Z" fill="#1F3059"/>
<path d="M192.977 237.335H190.011V241.145H192.977V237.335Z" fill="#1F3059"/>
<path d="M198.578 237.335H195.778V241.145H198.578V237.335Z" fill="#1F3059"/>
<path d="M204.178 237.335H201.378V241.145H204.178V237.335Z" fill="#1F3059"/>
<path d="M206.977 237.335H204.178V241.145H206.977V237.335Z" fill="#1F3059"/>
<path d="M215.542 237.335H212.577V241.145H215.542V237.335Z" fill="#1F3059"/>
<path d="M156.413 237.335H153.613V241.145H156.413V237.335Z" fill="#1F3059"/>
<g opacity="0.8">
<path d="M144.254 244.84C143.99 244.839 143.737 244.696 143.55 244.442C143.363 244.188 143.259 243.843 143.259 243.484V225.007C143.259 224.648 143.363 224.303 143.55 224.049C143.737 223.795 143.99 223.653 144.254 223.653H157.965C158.229 223.653 158.482 223.795 158.668 224.049C158.855 224.303 158.96 224.648 158.96 225.007C158.96 225.366 158.855 225.71 158.668 225.964C158.482 226.218 158.229 226.361 157.965 226.361H145.259V243.484C145.259 243.663 145.233 243.84 145.182 244.005C145.132 244.171 145.058 244.321 144.964 244.447C144.871 244.573 144.76 244.673 144.638 244.74C144.516 244.808 144.385 244.842 144.254 244.84Z" fill="white"/>
<path d="M224.902 244.922C224.637 244.922 224.384 244.78 224.197 244.525C224.01 244.271 223.905 243.926 223.905 243.566V226.287H211.321C211.064 226.273 210.821 226.124 210.642 225.871C210.464 225.618 210.365 225.282 210.365 224.932C210.365 224.582 210.464 224.245 210.642 223.993C210.821 223.74 211.064 223.591 211.321 223.577H224.902C225.166 223.577 225.419 223.72 225.606 223.975C225.792 224.229 225.897 224.574 225.897 224.933V243.575C225.895 243.933 225.789 244.275 225.603 244.528C225.417 244.78 225.165 244.922 224.902 244.922Z" fill="white"/>
</g>
<g opacity="0.8">
<path d="M224.902 337.778H211.199C210.942 337.764 210.699 337.615 210.521 337.362C210.343 337.11 210.243 336.773 210.243 336.423C210.243 336.073 210.343 335.737 210.521 335.484C210.699 335.232 210.942 335.082 211.199 335.068H223.913V317.945C223.908 317.762 223.929 317.58 223.977 317.409C224.025 317.238 224.097 317.082 224.19 316.95C224.283 316.818 224.395 316.713 224.518 316.642C224.642 316.57 224.775 316.533 224.909 316.533C225.044 316.533 225.177 316.57 225.3 316.642C225.424 316.713 225.535 316.818 225.629 316.95C225.722 317.082 225.794 317.238 225.842 317.409C225.889 317.58 225.911 317.762 225.905 317.945V336.422C225.905 336.601 225.879 336.778 225.829 336.943C225.778 337.108 225.704 337.258 225.611 337.384C225.518 337.511 225.407 337.61 225.285 337.678C225.164 337.745 225.033 337.78 224.902 337.778Z" fill="white"/>
<path d="M157.835 337.861H144.254C143.99 337.86 143.737 337.717 143.55 337.463C143.363 337.208 143.259 336.864 143.259 336.504V317.858C143.253 317.675 143.275 317.493 143.322 317.322C143.37 317.151 143.442 316.995 143.535 316.863C143.628 316.731 143.74 316.626 143.864 316.554C143.987 316.482 144.12 316.445 144.255 316.445C144.389 316.445 144.522 316.482 144.646 316.554C144.769 316.626 144.881 316.731 144.974 316.863C145.067 316.995 145.139 317.151 145.187 317.322C145.234 317.493 145.256 317.675 145.251 317.858V335.146H157.835C158.092 335.16 158.335 335.309 158.513 335.562C158.691 335.814 158.791 336.151 158.791 336.501C158.791 336.851 158.691 337.188 158.513 337.44C158.335 337.693 158.092 337.842 157.835 337.856V337.861Z" fill="white"/>
</g>
<path d="M217.917 360.916H151.238C150.196 360.916 149.351 362.066 149.351 363.484V366.075C149.351 367.494 150.196 368.644 151.238 368.644H217.917C218.96 368.644 219.805 367.494 219.805 366.075V363.484C219.805 362.066 218.96 360.916 217.917 360.916Z" fill="white"/>
<path d="M198.578 360.916V368.644H151.238C150.738 368.642 150.259 368.371 149.905 367.889C149.551 367.408 149.352 366.756 149.351 366.075V363.484C149.352 362.804 149.551 362.152 149.905 361.67C150.259 361.189 150.738 360.918 151.238 360.916H198.578Z" fill="#ED7D2B"/>
<path d="M188.714 360.916L183.475 368.644H173.676L178.913 360.916H188.714Z" fill="#F99746"/>
<path d="M198.578 360.916V368.644H189.494L194.732 360.916H198.578Z" fill="#F99746"/>
<path d="M172.934 360.916L167.697 368.644H157.897L163.134 360.916H172.934Z" fill="#F99746"/>
<path d="M157.155 360.916L151.926 368.644H151.208C150.708 368.642 150.228 368.371 149.874 367.889C149.52 367.408 149.321 366.756 149.319 366.075V363.484C149.321 362.804 149.52 362.151 149.874 361.67C150.228 361.189 150.708 360.918 151.208 360.916H157.155Z" fill="#F99746"/>
<path d="M177.351 356.508L177.724 355.904C178.022 356.298 178.42 356.521 178.835 356.528C179.218 356.528 179.46 356.299 179.46 355.911C179.46 355.569 179.32 355.383 178.665 355.172C177.915 354.942 177.484 354.63 177.484 353.733C177.484 352.911 177.99 352.356 178.687 352.356C179.152 352.342 179.605 352.556 179.964 352.957L179.627 353.595C179.356 353.293 179.02 353.12 178.67 353.102C178.308 353.102 178.097 353.354 178.097 353.685C178.097 354.054 178.265 354.217 178.94 354.437C179.684 354.683 180.072 355.046 180.072 355.854C180.072 356.751 179.554 357.286 178.814 357.286C178.272 357.283 177.751 357.005 177.351 356.508Z" fill="white"/>
<path d="M180.652 354.807C180.647 354.48 180.69 354.155 180.779 353.852C180.869 353.548 181.002 353.272 181.172 353.041C181.342 352.809 181.544 352.627 181.767 352.504C181.99 352.382 182.228 352.322 182.469 352.328C182.724 352.315 182.979 352.375 183.216 352.503C183.454 352.632 183.669 352.826 183.848 353.074L183.45 353.696C183.323 353.513 183.17 353.366 183.001 353.264C182.831 353.162 182.649 353.107 182.463 353.102C181.789 353.102 181.301 353.855 181.301 354.807C181.301 355.759 181.79 356.512 182.463 356.512C182.897 356.512 183.174 356.283 183.475 355.888L183.874 356.436C183.696 356.713 183.476 356.933 183.228 357.079C182.981 357.226 182.713 357.297 182.443 357.286C182.205 357.289 181.968 357.227 181.748 357.103C181.528 356.979 181.328 356.795 181.161 356.564C180.993 356.333 180.862 356.058 180.775 355.756C180.687 355.454 180.646 355.131 180.652 354.807Z" fill="white"/>
<path d="M185.771 352.379H186.345L187.893 357.198H187.24L186.883 356.051H185.216L184.855 357.198H184.221L185.771 352.379ZM186.657 355.303L186.048 353.384L185.444 355.303H186.657Z" fill="white"/>
<path d="M188.493 352.413H189.067L190.952 355.725V352.413H191.561V357.205H191.044L189.102 353.795V357.205H188.493V352.413Z" fill="white"/>
<path d="M237.407 318.725C240.655 317.438 244.322 318.916 246.616 322.303C252.288 330.684 248.105 337.145 250.944 343.011C252.659 346.554 254.1 352.762 248.787 356.434C246.329 358.132 239.004 367.005 237.513 367.221C222.333 369.341 222.056 348.381 227.174 342.306C234.371 333.764 227.793 322.539 237.407 318.725Z" fill="#1C2C4B"/>
<path d="M245.344 351.135C245.344 351.135 259.202 360.271 261.797 360.118C264.393 359.964 280.619 352.188 280.619 352.188L280.213 355.932C280.213 355.932 267.868 365.593 263.55 366.135C259.301 366.674 244.772 360.946 243.371 359.737C241.969 358.527 241.267 352.356 245.344 351.135Z" fill="#ED985F"/>
<path d="M246.869 359.748C245.412 361.087 243.78 362.032 242.062 362.532C234.651 364.861 231.81 356.335 230.744 350.49C231.518 349.907 232.373 349.549 233.254 349.439C233.79 349.354 234.354 349.297 234.821 349.265C235.653 348.397 236.892 344.849 237.167 339.336L237.515 339.465L243.356 341.641C243.356 341.641 243.089 344.165 242.957 346.554C242.856 348.422 242.839 350.208 243.099 350.644C243.556 350.779 243.829 350.873 243.829 350.873C245.048 353.693 246.066 356.665 246.869 359.748Z" fill="#FFB27D"/>
<path d="M243.356 341.641C243.356 341.641 243.087 344.165 242.957 346.554C239.648 346.095 238.113 341.817 237.515 339.467L243.356 341.641Z" fill="#ED985F"/>
<path d="M244.344 344.02C244.344 344.02 236.491 343.433 236.835 336.782C237.179 330.131 236.4 325.578 241.428 325.674C246.456 325.771 247.299 328.401 247.581 330.657C247.862 332.913 246.397 343.995 244.344 344.02Z" fill="#FFB27D"/>
<path d="M247.542 326.93C246.435 324.811 245.496 325.16 244.951 325.711C240.832 322.085 237.818 326.558 237.818 326.558C237.318 329.431 236.099 331.978 234.371 333.764C234.371 333.764 235.762 335.279 239.093 334.274C243.356 332.988 244.828 327.958 245.019 327.187C245.467 327.818 246.046 328.219 246.489 329.59C247.016 331.219 247.348 332.165 247.356 334.838C247.358 334.841 249.203 330.106 247.542 326.93Z" fill="#1C2C4B"/>
<path d="M228.506 381.475C227.798 376.543 225.485 356.831 227.798 350.492C228.628 348.216 231.888 348.009 235.464 348.197C236.575 349.175 240.815 352.868 242.548 352.409L242.645 352.377C243.465 352.097 243.775 351.314 243.091 350.637C244.355 350.786 245.614 351.024 246.86 351.351C248.103 351.67 251.514 354.52 251.514 354.52C251.514 354.52 249.967 357.793 247.479 359.225C247.903 364.375 247.274 366.647 243.347 378.54C240.029 388.594 243.794 397.645 243.794 397.645C243.794 397.645 224.266 419.01 224.156 408.131C224.082 399.95 229.414 387.782 228.506 381.475Z" fill="#F99746"/>
<path d="M244.771 420.882C245.295 420.802 245.801 420.567 246.252 420.193C246.703 419.82 247.089 419.317 247.383 418.72L247.685 418.101C249.908 413.511 250.773 399.511 255.781 384.559C257.001 380.922 261.371 380.268 262.563 376.157C262.563 376.157 265.498 362.83 256.948 362.438C248.399 362.045 234.033 399.516 233.814 403.447C233.595 407.255 228.162 423.428 244.771 420.882Z" fill="#6085D6"/>
<path d="M278.754 420.807H266.586C266.586 420.807 266.131 418.094 266.923 416.249C267.63 414.617 267.36 413.688 266.836 412.347C267.48 412.736 268.181 412.921 268.885 412.887C269.492 412.838 270.133 412.453 270.695 411.998C271.219 412.831 273.463 416.382 274.162 417.086C274.964 417.874 278.509 417.589 278.754 420.807Z" fill="#0D2644"/>
<path d="M262.833 366.282C263.567 373.757 266.427 397.352 271.476 408.861C273.103 412.572 267.375 414.654 267.345 414.642C266.576 414.369 265.296 412.703 264.707 411.98C260.608 406.954 252.29 392.723 252.29 381.314C252.29 375.751 252.217 365.128 255.191 362.429C257.021 360.774 262.538 363.321 262.833 366.282Z" fill="#6085D6"/>
<path d="M228.985 359.737C228.985 359.737 231.454 366.573 242.984 371.404C254.514 376.235 247.918 364.097 247.918 364.097L231.802 356.434L228.985 359.737Z" fill="#ED7D2B"/>
<path d="M238.829 420.903C239.272 419.93 239.613 418.877 239.841 417.775C240.495 414.651 240.728 412.379 241.984 407.514C243.303 402.405 244.868 396.122 246.827 389.583C247.431 387.564 248.071 385.521 248.753 383.483C249.971 379.845 253.322 380.348 254.515 376.235C254.515 376.235 259.165 361.983 250.615 361.589C242.065 361.194 225.821 399.718 224.885 403.45C223.859 407.53 220.186 424.804 238.829 420.903Z" fill="#446BD9"/>
<path d="M269.821 420.807H257.647C257.647 420.807 257.191 418.094 257.984 416.249C258.691 414.617 258.419 413.688 257.896 412.347C258.54 412.737 259.241 412.921 259.946 412.887C260.551 412.838 261.194 412.453 261.755 411.998C262.28 412.831 264.522 416.382 265.223 417.086C266.029 417.874 269.576 417.589 269.821 420.807Z" fill="#163560"/>
<g opacity="0.5">
<path d="M241.981 407.512C243.3 402.403 244.865 396.119 246.823 389.581C246.317 384.626 245.209 380.293 243.356 378.546C243.356 378.546 238.859 397.494 241.981 407.512Z" fill="#6085D6"/>
</g>
<path d="M255.729 365.761C256.463 373.236 257.495 397.359 262.543 408.868C264.169 412.579 258.443 414.661 258.411 414.649C257.643 414.376 256.363 412.71 255.773 411.987C251.676 406.961 243.356 392.73 243.356 381.321C243.356 375.758 248.154 365.582 251.126 362.881C252.958 361.217 255.439 362.791 255.729 365.761Z" fill="#446BD9"/>
<path d="M282.073 342.549L269.61 340.75C269.433 340.722 269.255 340.775 269.102 340.899C268.95 341.024 268.832 341.213 268.767 341.439L264.309 357.382C264.264 357.544 264.247 357.719 264.261 357.891C264.275 358.063 264.319 358.229 264.389 358.373C264.46 358.518 264.554 358.638 264.665 358.724C264.776 358.809 264.9 358.857 265.028 358.865L277.394 359.553C277.558 359.562 277.721 359.502 277.859 359.382C277.998 359.262 278.106 359.087 278.17 358.881L282.724 344.062C282.773 343.905 282.793 343.735 282.785 343.565C282.777 343.395 282.74 343.231 282.677 343.084C282.614 342.937 282.526 342.812 282.421 342.72C282.316 342.627 282.197 342.569 282.073 342.549Z" fill="#DB6B3A"/>
<path d="M283.154 342.705L270.693 340.904C270.516 340.876 270.338 340.928 270.185 341.052C270.032 341.177 269.915 341.367 269.85 341.592L265.405 357.545C265.36 357.707 265.344 357.881 265.358 358.054C265.372 358.226 265.416 358.392 265.486 358.536C265.556 358.681 265.65 358.801 265.761 358.887C265.872 358.972 265.996 359.02 266.124 359.028L278.49 359.716C278.655 359.725 278.817 359.665 278.955 359.545C279.093 359.425 279.201 359.25 279.265 359.044L283.819 344.225C283.869 344.066 283.89 343.894 283.882 343.722C283.874 343.55 283.836 343.383 283.771 343.235C283.706 343.086 283.616 342.961 283.509 342.869C283.402 342.777 283.28 342.721 283.154 342.705Z" fill="#F78248"/>
<path d="M276.247 350.148C276.399 349.579 276.183 349.118 275.765 349.118C275.539 349.139 275.322 349.247 275.139 349.429C274.956 349.612 274.815 349.861 274.733 350.148C274.581 350.717 274.795 351.179 275.213 351.179C275.44 351.157 275.657 351.049 275.84 350.867C276.023 350.685 276.164 350.435 276.247 350.148Z" fill="#F0F0F0"/>
<path d="M282.778 344.211C282.8 344.157 282.811 344.097 282.809 344.035C282.808 343.974 282.795 343.914 282.771 343.862C282.746 343.81 282.712 343.768 282.672 343.74C282.632 343.712 282.587 343.7 282.542 343.704C282.431 343.715 282.324 343.768 282.235 343.858C282.145 343.948 282.076 344.07 282.036 344.211C282.015 344.265 282.004 344.325 282.006 344.386C282.007 344.448 282.021 344.507 282.045 344.559C282.069 344.61 282.103 344.652 282.142 344.68C282.182 344.708 282.227 344.721 282.272 344.718C282.383 344.707 282.489 344.654 282.579 344.564C282.668 344.474 282.737 344.352 282.778 344.211Z" fill="#F0F0F0"/>
<path d="M230.744 350.49C230.744 350.49 248.016 359.145 250.612 358.966C252.298 358.853 266.232 352.184 266.232 352.184L267.483 355.397C267.483 355.397 253.912 367.264 250.181 367.205C242.816 367.09 230.387 360.937 228.985 359.727C227.583 358.518 226.668 351.713 230.744 350.49Z" fill="#FFB27D"/>
<path d="M266.232 352.184C266.232 352.184 267.483 349.563 268.73 349.485C269.976 349.407 272.13 350.632 272.865 350.834C273.601 351.036 275.699 351.952 275.075 353.341C274.451 354.729 271.563 355.037 270.317 354.718C269.07 354.398 267.483 355.406 267.483 355.406L266.232 352.184Z" fill="#FFB27D"/>
<path d="M268.391 349.565C268.391 349.565 270.373 348.328 270.939 348.099C271.506 347.869 271.393 348.099 271.223 348.831C271.052 349.563 270.042 350.261 270.042 350.49C270.042 350.72 268.391 349.565 268.391 349.565Z" fill="#FFB27D"/>
<path d="M281.871 350.795C281.871 350.795 281.081 347.252 280.213 348.365C279.309 349.512 279.857 350.683 279.968 352.161C280.179 354.986 280.599 354.864 280.865 354.738C281.132 354.612 282.166 352.216 281.871 350.795Z" fill="#FFB27D"/>
<path d="M281.918 351.335C281.918 351.335 282.318 354.353 280.213 355.925L280.835 353.848L281.918 351.335Z" fill="#FFB27D"/>
<path d="M245.815 340.188C245.815 340.188 245.073 339.789 242.983 340.02C242.983 340.02 243.094 341.129 244.634 341.239C245.503 341.301 245.815 340.188 245.815 340.188Z" fill="white"/>
<path d="M239.643 354.757C239.643 354.757 238.098 361.412 232.792 362.927C232.792 362.927 224.031 359.255 228.393 351.13C228.393 351.135 232.706 346.775 239.643 354.757Z" fill="#F99746"/>
<path d="M281.918 351.762C281.918 351.762 282.282 350.102 282.304 349.813C282.326 349.524 282.304 349.382 282.112 349.584C281.919 349.786 281.638 350.318 281.722 350.821C281.806 351.323 281.918 351.762 281.918 351.762Z" fill="#FFB27D"/>
<path d="M168.103 202.431C167.941 202.672 167.834 202.973 167.794 203.296C167.755 203.619 167.785 203.95 167.881 204.25C168.203 205.462 169.269 206.816 170.507 208.17C170.665 208.345 170.805 208.501 170.928 208.648L171.023 208.765C171.048 208.792 171.072 208.824 171.095 208.852C172.251 210.3 171.816 210.633 173.89 213.57C176.251 216.919 177.882 216.979 178.346 216.673C178.738 216.414 177.942 214.638 177.059 212.643C177.017 212.547 176.975 212.448 176.931 212.352C176.813 212.086 176.697 211.817 176.58 211.551C175.546 209.148 175.811 208.021 176.058 204.436C176.257 201.531 179.379 188.206 179.379 188.206L174.846 187.144C174.846 187.144 173.482 197.753 171.979 199.387C171.175 200.259 170.276 200.269 169.503 200.916C169.447 200.96 169.391 201.006 169.334 201.054C168.881 201.436 168.467 201.899 168.103 202.431Z" fill="#FFC49C"/>
<path d="M168.103 202.43C167.941 202.672 167.834 202.973 167.794 203.296C167.755 203.619 167.785 203.95 167.881 204.25C168.275 205.462 169.314 206.809 170.512 208.152C170.667 208.329 170.805 208.492 170.928 208.643L171.023 208.76C171.048 208.788 171.072 208.82 171.095 208.847C172.251 210.295 171.816 210.628 173.89 213.566C176.251 216.914 177.882 216.974 178.346 216.669C178.738 216.409 177.942 214.633 177.059 212.639C175.404 211.76 173.95 210.302 172.843 208.411C171.419 205.94 170.468 202.763 169.5 200.923C169.444 200.967 169.387 201.013 169.331 201.06C168.879 201.441 168.466 201.902 168.103 202.43Z" fill="#1C2C4B"/>
<path d="M204.647 198.579C204.927 200.482 206.92 200.165 209.148 199.424C211.376 198.683 210.847 199.564 214.018 199.087C217.189 198.609 218.148 197.001 218.246 196.358C218.332 195.789 216.765 195.589 215.085 195.325C214.873 195.293 214.662 195.256 214.449 195.222C212.552 194.898 211.162 193.232 209.438 191.864C207.806 190.568 205.37 185.289 205.37 185.289L201.022 185.748C201.022 185.748 203.304 190.485 204.179 192.523C204.699 193.728 204.672 195.323 204.606 196.555C204.553 197.229 204.567 197.91 204.647 198.579Z" fill="#FFC49C"/>
<path d="M209.148 199.436C211.376 198.694 210.847 199.576 214.018 199.098C217.189 198.621 218.148 197.012 218.246 196.369C218.332 195.8 216.765 195.601 215.085 195.337L215.068 195.38C213.71 196.567 212.141 197.23 210.528 197.301C208.377 197.372 206.099 196.535 204.613 196.567C204.557 197.24 204.569 197.921 204.647 198.591C204.927 200.482 206.92 200.165 209.148 199.436Z" fill="#1C2C4B"/>
<path d="M187.987 160.746L183.923 175.629L178.611 195.075C177.663 195.17 176.71 195.052 175.791 194.724C174.523 194.224 173.065 192.918 173.065 192.918C173.065 192.918 174.54 172.052 177.282 160.074C177.987 157.001 178.776 154.513 179.643 153.113C183.914 146.249 187.987 160.746 187.987 160.746Z" fill="#ED7D2B"/>
<path d="M183.85 137.11C181.32 135.997 174.302 137.305 167.049 139.187C166.729 139.27 166.398 139.219 166.101 139.039C165.803 138.858 165.553 138.559 165.384 138.18L164.372 135.885L147.892 134.134C147.892 134.134 143.638 147.284 145.448 158.231C145.891 160.912 148.3 164.382 151.982 164.694C162.304 165.568 169.269 160.691 179.981 155.564C181.836 154.674 182.693 160.308 184.629 165.844C186.565 171.379 202.845 190.359 202.845 190.359C202.845 190.359 205.346 190.393 206.387 189.865C207.497 189.298 207.905 188.562 207.905 188.562C207.905 188.562 189.856 139.747 183.85 137.11Z" fill="#F99746"/>
<path d="M163.716 70.5942C161.604 69.0864 158.393 68.8821 157.87 68.7858C151.63 67.6383 147.867 79.9922 147.646 83.7331C147.239 90.6181 144.557 91.6807 140.784 95.9999C133.216 104.659 135.436 114.722 139.573 118.461C142.056 120.703 146.431 118.461 146.431 118.461C146.494 118.518 158.407 109.405 164.268 105.008C173.065 103.307 169.097 74.4383 163.716 70.5942Z" fill="#1C2C4B"/>
<path d="M159.349 101.265C159.375 101.288 156.462 102.642 154.514 101.467C152.68 100.365 151.292 96.2638 151.319 96.2615C152.163 96.2087 153.068 95.2173 153.773 88.7109L154.127 88.8831L160.097 91.8C160.097 91.8 159.665 94.4071 159.385 96.888C159.145 98.9742 159.022 100.98 159.349 101.265Z" fill="#FFB27D"/>
<path d="M160.097 91.8C160.097 91.8 159.798 93.6498 159.467 96.1789C156.04 95.3389 154.612 91.4007 154.128 88.8785L160.097 91.8Z" fill="#ED975D"/>
<path d="M160.986 94.3911C160.986 94.3911 152.82 92.8993 153.581 85.9959C154.342 79.0926 153.8 74.2455 159.046 74.9065C164.291 75.5675 165.012 78.4087 165.17 80.7978C165.329 83.1869 163.129 94.6022 160.986 94.3911Z" fill="#FFB27D"/>
<path d="M164.88 77.011C164.88 77.011 159.651 83.141 156.096 83.6367C152.54 84.1324 151.194 82.5764 151.194 82.5764C152.614 80.8463 153.757 78.737 154.551 76.3799C154.732 75.826 155.018 75.3479 155.381 74.9953C155.743 74.6426 156.168 74.4281 156.612 74.3741C159.145 74.0849 163.957 73.9495 164.88 77.011Z" fill="#1C2C4B"/>
<path d="M161.604 76.4625C161.604 76.4625 163.354 78.7575 163.905 80.4696C164.436 82.1174 164.595 86.0556 164.172 87.6208C164.172 87.6208 166.897 80.4122 165.352 76.9077C163.718 73.1944 161.604 76.4625 161.604 76.4625Z" fill="#1C2C4B"/>
<path d="M166.229 117.633C166.857 137.691 165.865 136.585 164.354 137.56C163.833 137.897 162.694 138.379 161.082 138.524C156.022 138.983 147.103 137.835 146.764 136.571C145.595 132.162 146.426 130.792 145.445 124.04C145.343 123.322 145.217 122.544 145.07 121.697C144.255 117.061 143.464 115.482 146.35 108.033C148.966 101.283 151.685 95.8071 151.93 96.0044C158.833 101.581 159.39 96.8926 159.39 96.8926C159.39 96.8926 165.892 106.672 166.229 117.633Z" fill="#446BD9"/>
<path d="M183.917 175.629L178.611 195.075C177.663 195.17 176.71 195.052 175.791 194.724C174.523 194.224 173.065 192.918 173.065 192.918C173.065 192.918 174.54 172.052 177.282 160.074L183.917 175.629Z" fill="#F99746"/>
<path d="M159.385 96.8926C159.385 96.8926 166.487 98.5312 167.322 102.692L173.057 131.318C173.057 131.318 169.446 132.201 167.778 129.941C166.11 127.68 161.972 108.882 161.972 108.882L159.385 96.8926Z" fill="#446BD9"/>
<path d="M161.077 138.524C156.017 138.983 147.097 137.835 146.758 136.571C145.59 132.162 146.421 130.792 145.439 124.04L147.883 114.672C147.883 114.672 147.48 125.103 149.739 127.848C151.997 130.592 158.995 133.142 160.095 135.435C160.626 136.536 160.975 137.638 161.077 138.524Z" fill="#6085D6"/>
<path d="M155.266 134.138C155.266 134.138 160.265 132.623 161.073 133.22C161.881 133.817 163.851 136.022 164.099 136.789C164.347 137.555 162.303 136.206 161.638 135.965C161.208 135.807 160.075 136.344 159.513 136.598C157.152 137.668 155.708 137.117 155.708 137.117L155.266 134.138Z" fill="#FFB27D"/>
<path d="M151.92 95.9998C151.92 95.9998 145.205 96.5621 142.881 100.973C139.609 107.183 133.118 133.647 136.838 137.177C141.027 141.152 155.897 138.216 155.897 138.216C155.897 138.216 156.391 135.068 155.703 133.544C155.015 132.02 143.82 129.56 143.302 128.857C142.785 128.155 149.761 115.149 149.761 113.04C149.761 110.931 151.92 95.9998 151.92 95.9998Z" fill="#446BD9"/>
<path d="M161.318 135.12C161.318 135.12 162.367 136.956 162.709 137.186C162.882 137.314 163.078 137.371 163.274 137.351L162.569 135.621L161.318 135.12Z" fill="#FFB27D"/>
<path d="M161.077 133.227L164.123 135.24C164.063 135.341 163.985 135.418 163.896 135.464C163.807 135.511 163.711 135.524 163.617 135.504C163.241 135.481 162.294 135.01 162.294 135.01L161.077 133.227Z" fill="#FFB27D"/>
<path d="M162.709 139.995H186.807L194.056 115.468H169.996L162.709 139.995Z" fill="#1F3059"/>
<path d="M187.09 139.04H155.269V139.995H186.807L187.09 139.04Z" fill="#1F3059"/>
<path d="M180.725 127.733C180.905 126.87 180.539 126.172 179.905 126.172C179.571 126.198 179.252 126.361 178.988 126.639C178.724 126.918 178.529 127.3 178.429 127.733C178.247 128.596 178.615 129.293 179.247 129.293C179.581 129.268 179.901 129.106 180.165 128.827C180.429 128.548 180.624 128.166 180.725 127.733Z" fill="#F0F0F0"/>
<path d="M360.563 420H-3.56273C-3.80423 420 -4 420.362 -4 420.808V421.192C-4 421.638 -3.80423 422 -3.56273 422H360.563C360.804 422 361 421.638 361 421.192V420.808C361 420.362 360.804 420 360.563 420Z" fill="#2E3552"/>
</svg>
