<svg width="360" height="310" viewBox="0 0 360 310" fill="none" xmlns="http://www.w3.org/2000/svg">
<path d="M65.3009 282.41C64.8153 274.986 77.007 273.182 77.007 273.182C77.007 273.182 88.8623 282.41 91.2239 281.913C93.5855 281.417 82.6275 272.048 82.6275 272.048C86.8698 270.121 99.8933 271.67 99.8933 271.67C99.8933 271.67 103.935 285.784 106.104 284.726C108.272 283.669 101.887 272.411 101.887 272.411C106.57 272.231 112.229 275.829 112.229 275.829C119.946 282.2 111.366 291.78 111.366 291.78C111.366 291.78 112.872 296.636 117.735 301.144C117.735 301.144 118.755 301.933 120.029 303.432L118.872 303.828C118.671 303.55 118.464 303.287 118.251 303.038L118.242 303.027C118.101 302.875 117.9 302.662 117.652 302.399C117.061 301.827 116.647 301.397 116.37 301.08C114.566 299.27 112.069 296.961 110.848 296.709C110.897 296.508 110.919 296.301 110.913 296.094C110.892 296.29 110.87 296.496 110.848 296.709C110.32 301.635 100.655 305.736 94.7463 306.493C88.838 307.251 90.7115 304.87 92.8182 301.324C94.9248 297.779 101.382 296.313 102.883 294.693C104.383 293.072 101.355 293.002 97.7721 294.546C94.189 296.089 93.6086 300.399 87.857 303C82.1054 305.601 73.7481 295.971 73.7481 295.971C78.2892 295.84 84.8737 291.055 84.6758 289.536C84.4779 288.017 73.6266 291.897 71.7799 292.054C69.9331 292.211 65.7866 289.831 65.3009 282.41Z" fill="#AFCBF3"/>
<path d="M359.5 308H-106V310H359.5V308Z" fill="#3F3D56"/>
<path d="M265.986 307.273H163.039C161.778 307.271 160.57 306.714 159.678 305.725C158.787 304.736 158.285 303.394 158.284 301.995V195.83C158.285 194.431 158.787 193.09 159.678 192.1C160.57 191.111 161.778 190.555 163.039 190.553H265.986C267.247 190.555 268.456 191.111 269.347 192.1C270.239 193.09 270.74 194.431 270.742 195.83V301.995C270.74 303.394 270.239 304.736 269.347 305.725C268.456 306.714 267.247 307.271 265.986 307.273Z" fill="#495ABE"/>
<path d="M221.785 308H207.238C205.978 307.998 204.769 307.442 203.877 306.453C202.986 305.463 202.484 304.122 202.483 302.723V189.676C202.484 188.277 202.986 186.936 203.877 185.946C204.769 184.957 205.978 184.401 207.238 184.399H221.785C223.046 184.401 224.255 184.957 225.147 185.946C226.038 186.936 226.54 188.277 226.541 189.676V302.723C226.54 304.122 226.038 305.463 225.147 306.453C224.255 307.442 223.046 307.998 221.785 308Z" fill="#3F3D56"/>
<path d="M293.338 183.044C292.736 193.996 279.404 202.005 279.404 202.005C279.404 202.005 267.047 192.259 267.649 181.307C268.25 170.355 281.582 162.345 281.582 162.345C281.582 162.345 293.939 172.092 293.338 183.044Z" fill="#3F3D56"/>
<path d="M293.942 217.215C284.07 216.581 276.81 201.812 276.81 201.812C276.81 201.812 285.555 188.07 295.427 188.703C305.298 189.336 312.558 204.105 312.558 204.105C312.558 204.105 303.813 217.848 293.942 217.215Z" fill="#3F3D56"/>
<path opacity="0.1" d="M270.462 206.541V247.07L234.134 193.863H261.807L270.462 206.541Z" fill="black"/>
<path d="M301.303 275.918C300.567 275.92 299.842 275.732 299.183 275.369C298.524 275.007 297.951 274.48 297.507 273.83L221.821 162.983C221.444 162.43 221.169 161.801 221.011 161.131C220.853 160.46 220.816 159.762 220.901 159.075C220.986 158.389 221.192 157.727 221.508 157.129C221.823 156.531 222.242 156.008 222.74 155.59L233.889 146.216C234.387 145.798 234.954 145.492 235.558 145.317C236.162 145.141 236.792 145.1 237.41 145.195C238.029 145.289 238.625 145.518 239.164 145.869C239.703 146.219 240.174 146.684 240.551 147.236L316.236 258.082C316.613 258.635 316.889 259.264 317.047 259.935C317.205 260.605 317.242 261.304 317.157 261.99C317.072 262.677 316.865 263.338 316.55 263.936C316.234 264.534 315.816 265.057 315.318 265.476L304.169 274.849C303.345 275.544 302.338 275.919 301.303 275.918Z" fill="#495ABE"/>
<path d="M271.008 189.785L251.832 205.907L266.361 227.186L285.536 211.064L271.008 189.785Z" fill="#3F3D56"/>
<path d="M107.32 308.923H82.919V298.461H98.7551C101.027 298.461 103.205 299.463 104.812 301.245C106.418 303.028 107.32 305.445 107.32 307.966V308.923Z" fill="#495ABE"/>
<path d="M234.236 29.8626L235.344 32.0977L237.358 33.3207L235.344 34.55L234.236 36.7851L233.134 34.55L231.12 33.3207L233.134 32.0977L234.236 29.8626Z" fill="#FBFCE6"/>
<path style="mix-blend-mode:multiply" opacity="0.35" d="M235.343 28.8714L199.669 3.19357L166.679 59.6292L202.353 85.307L235.343 28.8714Z" fill="url(#paint0_linear_526_3609)"/>
<path d="M210.81 32.7125C210.814 38.9925 209.14 45.1328 205.999 50.3566C202.858 55.5804 198.391 59.653 193.163 62.059C187.936 64.4651 182.183 65.0966 176.632 63.8735C171.081 62.6505 165.981 59.6279 161.979 55.1881C157.976 50.7484 155.25 45.0911 154.146 38.9318C153.042 32.7726 153.608 26.3883 155.775 20.5866C157.941 14.7849 161.609 9.82656 166.316 6.33888C171.022 2.8512 176.555 0.99091 182.214 0.993365C189.795 0.996653 197.065 4.33914 202.427 10.2866C207.789 16.234 210.804 24.2999 210.81 32.7125Z" fill="#FFCC00"/>
<path d="M204.09 12.2802C199.781 6.60193 193.814 2.77941 187.227 1.47735C180.641 0.175282 173.851 1.47604 168.04 5.15342C162.228 8.8308 157.761 14.6522 155.417 21.6053C153.073 28.5584 152.998 36.2034 155.207 43.2109C171.347 32.5861 187.641 22.2759 204.09 12.2802Z" fill="#FCDC59"/>
<path d="M185.51 64.239C191.898 63.4201 197.851 60.2304 202.401 55.187C197.925 57.5711 193.482 59.98 189.018 62.3764C187.854 63.0035 186.69 63.6119 185.51 64.239Z" fill="#FCDC59"/>
<path d="M203.475 32.2094C203.475 36.9824 202.199 41.6481 199.81 45.6167C197.42 49.5852 194.024 52.6783 190.05 54.5049C186.076 56.3314 181.703 56.8093 177.485 55.8781C173.266 54.947 169.391 52.6486 166.35 49.2736C163.308 45.8986 161.237 41.5987 160.398 36.9174C159.559 32.2362 159.989 27.384 161.635 22.9744C163.281 18.5648 166.069 14.7958 169.645 12.1441C173.221 9.49239 177.426 8.07706 181.727 8.07706C187.495 8.07706 193.027 10.6196 197.105 15.1453C201.184 19.671 203.475 25.8091 203.475 32.2094Z" fill="#DA8100"/>
<path d="M204.113 33.2152C204.113 37.9243 202.854 42.5276 200.497 46.4431C198.139 50.3585 194.788 53.4102 190.867 55.2123C186.947 57.0144 182.632 57.4859 178.47 56.5672C174.308 55.6485 170.485 53.3809 167.484 50.0511C164.483 46.7213 162.44 42.4788 161.612 37.8602C160.784 33.2416 161.209 28.4543 162.833 24.1037C164.457 19.753 167.207 16.0345 170.736 13.4183C174.264 10.802 178.412 9.40564 182.656 9.40564C185.474 9.40482 188.265 10.0201 190.868 11.2164C193.472 12.4126 195.837 14.1664 197.83 16.3775C199.823 18.5886 201.403 21.2136 202.481 24.1027C203.559 26.9918 204.114 30.0882 204.113 33.2152Z" fill="#F0AA00"/>
<path d="M191.899 19.6621H184.911C186.277 21.0307 187.125 22.9232 187.283 24.9579H191.899V27.5593H187.322C186.903 32.8551 183.467 36.2512 178.046 36.4374C181.347 40.6406 184.95 45.9364 188.508 51.2881H184.452C181.151 46.4082 178.057 41.8885 174.074 36.6982V33.476H176.401C180.978 33.476 183.439 31.1416 183.736 27.5593H174.062V24.9579H183.574C182.981 21.9468 180.732 20.4444 177.044 20.4444H174.062V17.0669H191.899V19.6621Z" fill="#EA9C00"/>
<path d="M191.306 18.9978H184.312C185.685 20.361 186.534 22.2565 186.685 24.2936H191.306V26.8888H186.729C186.304 32.1846 182.874 35.5806 177.447 35.7669C180.754 39.9763 184.357 45.2721 187.915 50.6176H183.848C180.541 45.7377 177.447 41.218 173.464 36.0277V32.8117H175.797C180.373 32.8117 182.83 30.4711 183.126 26.8888H173.464V24.2936H182.975C182.382 21.2825 180.138 19.7738 176.451 19.7738H173.464V16.4026H191.306V18.9978Z" fill="#FFCC00"/>
<path d="M152.315 31.7066L153.579 34.2769L155.896 35.68L153.579 37.0831L152.315 39.6534L151.05 37.0831L148.734 35.68L151.05 34.2769L152.315 31.7066Z" fill="#FBFCE6"/>
<path d="M155.896 6.05309L156.539 7.36308L157.72 8.07706L156.539 8.79103L155.896 10.0948L155.252 8.79103L154.072 8.07706L155.252 7.36308L155.896 6.05309Z" fill="#FBFCE6"/>
<path d="M199.81 2.14174L201.058 4.66859L203.335 6.05308L201.058 7.43758L199.81 9.96443L198.563 7.43758L196.285 6.05308L198.563 4.66859L199.81 2.14174Z" fill="#FBFCE6"/>
<path d="M198.932 53.4983L199.838 55.336L201.494 56.3418L199.838 57.3414L198.932 59.1791L198.031 57.3414L196.375 56.3418L198.031 55.336L198.932 53.4983Z" fill="#FBFCE6"/>
<path d="M215.437 33.7988L216.036 35.0157L217.132 35.68L216.036 36.3443L215.437 37.5612L214.838 36.3443L213.742 35.68L214.838 35.0157L215.437 33.7988Z" fill="#FBFCE6"/>
<path d="M215.437 20.1588L215.644 20.5747L216.019 20.8044L215.644 21.0342L215.437 21.4501L215.23 21.0342L214.855 20.8044L215.23 20.5747L215.437 20.1588Z" fill="#FBFCE6"/>
<path d="M148.734 20.1588L148.941 20.5747L149.316 20.8044L148.941 21.0342L148.734 21.4501L148.527 21.0342L148.152 20.8044L148.527 20.5747L148.734 20.1588Z" fill="#FBFCE6"/>
<path d="M229.609 50.4872L229.973 51.2261L230.633 51.6296L229.973 52.0269L229.609 52.7658L229.245 52.0269L228.585 51.6296L229.245 51.2261L229.609 50.4872Z" fill="#FBFCE6"/>
<path style="mix-blend-mode:multiply" opacity="0.35" d="M172.192 144.044L135.87 117.9L156.191 60.2112L199.479 88.8447L172.192 144.044Z" fill="url(#paint1_linear_526_3609)"/>
<path d="M143.323 119.775C154.468 119.775 163.504 105.816 163.504 88.5964C163.504 71.3767 154.468 57.4174 143.323 57.4174C132.177 57.4174 123.142 71.3767 123.142 88.5964C123.142 105.816 132.177 119.775 143.323 119.775Z" fill="#F0AA00"/>
<path d="M148.168 57.4174H143.725V119.769H148.168V57.4174Z" fill="#F0AA00"/>
<path d="M148.162 119.775C159.308 119.775 168.343 105.816 168.343 88.5964C168.343 71.3767 159.308 57.4174 148.162 57.4174C137.017 57.4174 127.981 71.3767 127.981 88.5964C127.981 105.816 137.017 119.775 148.162 119.775Z" fill="#FFCC00"/>
<path d="M165.048 77.4149C163.815 77.8863 162.493 77.9975 161.21 77.7378C157.444 76.7692 154.261 73.8016 152.095 69.8903C150.053 66.078 148.76 61.8294 148.302 57.4236C156.527 57.5105 163.576 65.1966 166.67 76.167C166.192 76.6747 165.644 77.0958 165.048 77.4149Z" fill="#FCDC59"/>
<path d="M144.57 106.104C136.43 100.622 130.085 92.3464 128.423 82.1086C129.76 72.3799 134.018 64.3275 139.742 60.2671C140.637 66.5067 142.59 72.442 146.081 77.5453C149.902 83.133 155.492 87.243 161.903 87.7397C164.09 87.9151 166.283 87.5064 168.298 86.5476C168.326 87.2244 168.349 87.9073 168.349 88.5965C168.349 98.8032 165.171 107.843 160.264 113.548C154.764 111.833 149.488 109.331 144.57 106.104Z" fill="#FCDC59"/>
<path d="M149.259 119.726C148.895 119.757 148.532 119.775 148.14 119.775C141.986 119.775 136.435 115.479 132.731 108.718C137.655 113.376 143.239 117.095 149.259 119.726Z" fill="#FCDC59"/>
<path d="M133.28 88.019C133.28 101.256 140.094 111.978 148.509 111.978C156.924 111.978 163.744 101.256 163.744 88.019C163.744 74.7826 156.924 64.0605 148.509 64.0605C140.094 64.0605 133.28 74.7888 133.28 88.019Z" fill="#DA8100"/>
<path d="M132.541 88.5964C132.541 101.51 139.143 111.978 147.295 111.978C155.447 111.978 162.043 101.51 162.043 88.5964C162.043 75.6828 155.441 65.2153 147.295 65.2153C139.149 65.2153 132.541 75.6828 132.541 88.5964Z" fill="#F0AA00"/>
<path d="M155.9 81.2518L150.893 79.47C151.866 80.9597 152.447 82.72 152.571 84.5547L155.878 85.7281V87.9259L152.605 86.7587C152.269 91.1047 149.807 93.11 145.891 91.9056C148.229 96.3012 150.781 101.696 153.293 107.123L150.383 106.086C148.045 101.119 145.857 96.5123 143.037 91.1109V88.3853L144.716 89.0062C147.989 90.1734 149.751 88.8199 149.997 85.8647L143.082 83.3813V81.1897L149.908 83.6172C149.505 80.9165 147.905 79.0726 145.264 78.1351L143.11 77.3653V74.5156L155.911 79.0416L155.9 81.2518Z" fill="#EA9C00"/>
<path d="M155.475 80.5378L150.467 78.7621C151.439 80.2501 152.02 82.0082 152.146 83.8407L155.452 85.0203V87.2119L152.179 86.0509C151.844 90.3969 149.382 92.396 145.465 91.1915C147.81 95.5934 150.355 100.982 152.873 106.415L149.941 105.378C147.608 100.411 145.421 95.8045 142.601 90.3969V87.6775L144.279 88.2673C147.558 89.4345 149.315 88.0873 149.561 85.1321L142.646 82.6487V80.4509L149.471 82.8784C149.063 80.1839 147.463 78.34 144.828 77.3963L142.674 76.6326V73.7767L155.447 78.3214L155.475 80.5378Z" fill="#FFCC00"/>
<path d="M127.981 76.1733L128.938 78.1041L130.678 79.1596L128.938 80.215L127.981 82.1521L127.03 80.215L125.29 79.1596L127.03 78.1041L127.981 76.1733Z" fill="#FBFCE6"/>
<path d="M119.846 53.2205L121.189 55.9398L123.64 57.4236L121.189 58.9136L119.846 61.633L118.509 58.9136L116.059 57.4236L118.509 55.9398L119.846 53.2205Z" fill="#FBFCE6"/>
<path d="M165.792 55.3376L166.458 56.691L167.672 57.4236L166.458 58.1624L165.792 59.5159L165.126 58.1624L163.912 57.4236L165.126 56.691L165.792 55.3376Z" fill="#FBFCE6"/>
<path d="M157.539 46L158.692 48.3344L160.796 49.6071L158.692 50.8861L157.539 53.2205L156.387 50.8861L154.283 49.6071L156.387 48.3344L157.539 46Z" fill="#FBFCE6"/>
<path d="M164.813 93.8426L165.009 94.2462L165.378 94.4697L165.009 94.6932L164.813 95.0967L164.611 94.6932L164.242 94.4697L164.611 94.2462L164.813 93.8426Z" fill="#FBFCE6"/>
<path style="mix-blend-mode:multiply" opacity="0.35" d="M237.713 147.886L195.191 128.143L209.268 64.7167L263.858 97.3796L237.713 147.886Z" fill="url(#paint2_linear_526_3609)"/>
<path d="M205.592 63.4564H198.761V129.453H205.592V63.4564Z" fill="#F0AA00"/>
<path d="M219.014 96.4545C219.014 114.676 212.983 129.446 205.587 129.446C198.19 129.446 193.183 114.67 193.183 96.4483C193.183 78.2264 198.218 63.4502 205.587 63.4502C212.955 63.4502 219.014 78.2264 219.014 96.4545Z" fill="#F0AA00"/>
<path d="M212.636 96.4545C212.636 114.676 206.644 129.453 199.253 129.453C191.862 129.453 185.87 114.676 185.87 96.4545C185.87 78.2326 191.862 63.4564 199.253 63.4564C206.644 63.4564 212.636 78.2264 212.636 96.4545Z" fill="#FFCC00"/>
<path d="M195.711 112.23C196.83 109.126 198.106 105.898 198.828 102.607C201.413 90.8669 198.956 77.916 191.896 68.9012C188.242 74.8117 185.87 84.9378 185.87 96.4545C185.87 107.481 188.069 117.241 191.437 123.232C192.959 119.612 194.397 115.937 195.711 112.23Z" fill="#FCDC59"/>
<path d="M207.22 95.8399C207.22 109.852 204.775 121.171 199.813 121.171C194.542 121.171 189.238 109.852 189.238 95.8399C189.238 81.8273 193.278 70.4658 198.229 70.4658C199.443 70.4658 200.769 70.4658 202.929 72.7754C206.325 76.4508 207.22 85.273 207.22 95.8399Z" fill="#DA8100"/>
<path d="M209.268 96.4544C209.268 110.113 205.245 121.201 200.283 121.201C195.32 121.201 191.292 110.126 191.292 96.4544C191.292 82.7834 195.314 71.7074 200.283 71.7074C205.251 71.7074 209.268 82.7834 209.268 96.4544Z" fill="#F0AA00"/>
<path d="M203.561 82.5289L200.764 84.1617C201.251 85.0061 201.603 86.4651 201.709 88.725L203.544 88.0358V90.7365L201.726 91.227C201.553 96.349 200.187 99.4781 198.033 99.4781C199.662 104.395 201.063 109.402 202.23 114.478L200.613 113.366C199.458 108.676 198.08 104.056 196.484 99.5277V97.1064L197.412 97.0754C199.231 97.0195 200.21 94.8776 200.327 91.6119L196.484 92.6425V90.6869L200.277 89.2713C200.036 86.6575 199.158 85.8008 197.681 86.6203L196.484 87.2846V84.7453L203.578 79.8344L203.561 82.5289Z" fill="#EA9C00"/>
<path d="M203.348 81.9887L200.551 83.696C201.038 84.5155 201.39 85.9435 201.491 88.1786L203.326 87.446V90.1156L201.508 90.6557C201.34 95.7343 199.975 98.8696 197.821 98.9192C199.439 103.752 200.828 108.676 201.983 113.671L200.361 112.597C199.209 107.992 197.831 103.461 196.232 99.0248V96.6345L197.155 96.5786C198.973 96.4731 199.952 94.3312 200.07 91.0903L196.232 92.1954V90.2646L200.02 88.7497C199.785 86.167 198.901 85.3537 197.423 86.2105L196.232 86.9058V84.3914L203.348 79.3128V81.9887Z" fill="#FFCC00"/>
<path d="M207.22 68.0445L208.384 70.4099L210.521 71.7075L208.384 72.9988L207.22 75.3705L206.051 72.9988L203.919 71.7075L206.051 70.4099L207.22 68.0445Z" fill="#FBFCE6"/>
<path d="M212.591 91.6429L213.308 93.0895L214.611 93.8842L213.308 94.6727L212.591 96.1193L211.881 94.6727L210.577 93.8842L211.881 93.0895L212.591 91.6429Z" fill="#FBFCE6"/>
<path d="M174.009 81.8397L174.859 83.5657L176.42 84.5094L174.859 85.4593L174.009 87.1852L173.158 85.4593L171.603 84.5094L173.158 83.5657L174.009 81.8397Z" fill="#FBFCE6"/>
<path d="M189.238 133.979L189.859 135.233L190.989 135.922L189.859 136.605L189.238 137.859L188.623 136.605L187.493 135.922L188.623 135.233L189.238 133.979Z" fill="#FBFCE6"/>
<path d="M338.93 252.784C336.186 242.651 319.088 245.818 319.088 245.818C319.088 245.818 307.478 263.545 304.101 263.971C300.724 264.397 311.067 246.873 311.067 246.873C304.522 246.24 287.847 254.261 287.847 254.261C287.847 254.261 288.902 274.947 285.525 274.526C282.148 274.105 285.525 256.161 285.525 256.161C279.192 258.06 273.281 265.449 273.281 265.449C265.894 277.481 281.725 286.346 281.725 286.346C281.725 286.346 281.936 293.523 277.503 301.756C277.503 301.756 276.502 303.274 275.486 305.858H277.213C277.353 305.396 277.509 304.948 277.681 304.523C277.681 304.522 277.68 304.52 277.68 304.519C277.68 304.518 277.681 304.517 277.681 304.515C277.684 304.509 277.686 304.503 277.69 304.497C277.811 304.23 277.978 303.85 278.189 303.389C278.716 302.357 279.073 301.594 279.297 301.043C280.876 297.801 283.155 293.578 284.673 292.693C284.518 292.446 284.395 292.18 284.308 291.901L284.673 292.693C287.628 299.025 302.4 300.081 310.637 298.392C318.874 296.703 315.28 294.385 310.848 290.613C306.416 286.84 297.128 287.837 294.383 286.363C291.637 284.889 295.65 283.408 301.138 283.83C306.626 284.253 309.37 289.741 318.235 290.585C327.1 291.429 333.856 274.754 333.856 274.754C327.735 276.653 316.758 273.277 316.336 271.165C315.915 269.054 332.167 269.265 334.701 268.632C337.235 268 341.674 262.91 338.93 252.784Z" fill="#DFEBFD"/>
<path d="M105.913 255.542C105.913 255.542 106.667 261.561 105.539 261.633C104.411 261.704 105.175 254.865 105.175 254.865C105.175 254.865 99.8083 251.866 97.6252 251.942C97.6252 251.942 100.699 257.963 99.5873 257.754C98.4751 257.546 94.9867 251.428 94.9867 251.428C94.9867 251.428 89.3808 250.03 88.265 253.335C87.1491 256.64 88.5151 258.409 89.3419 258.677C90.1688 258.946 95.5647 259.199 95.3813 259.891C95.198 260.583 91.4886 261.478 89.4974 260.724C89.4974 260.724 91.3988 266.392 94.3541 266.293C97.3095 266.193 98.333 264.429 100.163 264.401C101.993 264.373 103.291 264.944 102.348 265.372C101.406 265.801 98.3488 265.287 96.8019 266.447C95.2551 267.606 94.0166 268.303 96.7133 269.032C99.41 269.76 104.33 269.711 105.44 267.669L105.578 267.415C105.544 267.505 105.497 267.591 105.44 267.669C105.925 267.995 106.594 269.442 107.052 270.55C107.116 270.737 107.218 270.998 107.373 271.352C107.435 271.511 107.484 271.642 107.517 271.733C108.332 274.201 107.567 278.328 107.567 278.328L108.153 278.524C109.704 274.413 107.648 270.831 107.648 270.831C106.345 268.011 106.556 265.635 106.556 265.635C106.556 265.635 111.987 263.017 109.782 258.876C109.784 258.871 107.975 256.305 105.913 255.542Z" fill="#6376E5"/>
<path d="M293.637 149.249C293.637 149.249 292.337 148.268 292.001 146.803C291.759 145.71 292.377 144.349 292.428 144.287L290.687 143.94C290.687 143.94 290.17 146.247 291.051 147.788C291.318 148.257 292.094 148.906 292.594 149.149C292.918 149.306 293.288 149.342 293.637 149.249Z" fill="#6BB7BF"/>
<path d="M296.663 148.191L298.241 150.003C298.241 150.003 293.762 151.192 291.199 148.024C291.209 148.024 294.979 149.299 296.663 148.191Z" fill="#86D1CD"/>
<path d="M215.002 125.437C215.002 125.437 216.618 122.754 219.469 124.396L221.032 122.696C221.032 122.696 219.4 121.616 215.949 123.965C213.696 125.502 215.002 125.437 215.002 125.437Z" fill="#F99746"/>
<path d="M213.41 128.068C213.41 128.068 212.867 125.143 217.681 122.985C217.681 122.985 215.954 123.965 215.594 126.939L213.41 128.068Z" fill="#F99746"/>
<path d="M115.297 212.5C115.297 212.5 112.65 211.457 113.689 208.656L111.931 207.514C111.931 207.514 111.21 209.138 113.836 211.874C115.56 213.665 115.297 212.5 115.297 212.5Z" fill="#5685D8"/>
<path d="M117.894 213.534C117.894 213.534 115.356 214.461 112.697 210.475C112.697 210.475 113.836 211.874 116.552 211.747L117.894 213.534Z" fill="#739AF0"/>
<path d="M122.923 175.804C122.923 175.804 124.38 174.881 124.538 173.766C124.538 173.766 125.961 173.843 126.268 174.304C126.268 174.304 125.615 176.15 124.845 176.49C124.845 176.491 123.116 176.606 122.923 175.804Z" fill="#F1A34F"/>
<path d="M201.658 155.591C201.658 155.591 199.481 154.215 199.252 152.556C199.252 152.556 197.133 152.677 196.675 153.358C196.675 153.358 197.647 156.107 198.794 156.623C198.794 156.62 201.372 156.793 201.658 155.591Z" fill="#86D1CD"/>
<path d="M335.302 149.198L348.833 191.564C349.118 192.465 349.036 193.442 348.604 194.282C348.171 195.122 347.425 195.757 346.526 196.049L272.205 219.787C271.305 220.072 270.328 219.989 269.487 219.557C268.647 219.125 268.012 218.378 267.72 217.48L254.183 175.107C253.898 174.206 253.98 173.229 254.412 172.389C254.845 171.549 255.591 170.914 256.49 170.623L330.811 146.884C331.713 146.598 332.692 146.68 333.534 147.114C334.376 147.548 335.011 148.297 335.302 149.198Z" fill="#AFCBF3"/>
<path d="M292.561 203.051L272.753 209.379C272.349 209.506 271.91 209.469 271.534 209.275C271.157 209.08 270.873 208.745 270.742 208.342L270.681 208.151C270.554 207.747 270.591 207.309 270.785 206.932C270.98 206.555 271.315 206.271 271.718 206.14L291.527 199.814C291.931 199.686 292.369 199.724 292.746 199.918C293.123 200.112 293.407 200.448 293.537 200.851L293.598 201.041C293.726 201.445 293.689 201.883 293.495 202.26C293.3 202.637 292.965 202.921 292.561 203.051Z" fill="#6376E5"/>
<path d="M318.664 194.715L298.856 201.041C298.451 201.168 298.013 201.131 297.637 200.937C297.26 200.742 296.975 200.407 296.845 200.004L296.784 199.813C296.657 199.409 296.694 198.971 296.888 198.595C297.083 198.218 297.418 197.934 297.821 197.804L317.629 191.477C318.034 191.349 318.472 191.386 318.849 191.581C319.225 191.775 319.51 192.11 319.64 192.513L319.701 192.704C319.828 193.108 319.791 193.546 319.597 193.923C319.403 194.3 319.067 194.584 318.664 194.715Z" fill="#6376E5"/>
<path d="M295.088 180.402C295.319 181.125 295.382 181.757 295.277 182.297C295.218 182.607 295.077 182.894 294.868 183.13C294.659 183.366 294.39 183.541 294.09 183.637C293.79 183.732 293.47 183.746 293.163 183.675C292.856 183.604 292.574 183.452 292.346 183.235C291.948 182.855 291.634 182.304 291.403 181.581C291.172 180.858 291.107 180.229 291.209 179.694C291.269 179.383 291.412 179.095 291.622 178.858C291.832 178.621 292.102 178.446 292.403 178.349C292.705 178.253 293.027 178.24 293.335 178.31C293.644 178.381 293.927 178.534 294.157 178.752C294.547 179.13 294.857 179.68 295.088 180.402ZM294.177 180.688C294.064 180.299 293.889 179.93 293.66 179.596C293.353 179.184 293.021 179.035 292.662 179.15C292.303 179.265 292.107 179.58 292.099 180.086C292.101 180.495 292.171 180.9 292.305 181.286C292.698 182.519 293.21 183.034 293.839 182.833C294.202 182.716 294.386 182.4 294.391 181.884C294.384 181.477 294.312 181.073 294.177 180.688Z" fill="#6376E5"/>
<path d="M299.154 179.103C299.385 179.826 299.448 180.457 299.344 180.998C299.285 181.308 299.143 181.596 298.934 181.833C298.725 182.069 298.456 182.244 298.155 182.34C297.855 182.436 297.534 182.45 297.226 182.378C296.919 182.307 296.637 182.154 296.409 181.935C296.01 181.556 295.695 181.005 295.464 180.282C295.234 179.559 295.169 178.93 295.27 178.395C295.331 178.084 295.473 177.795 295.684 177.559C295.894 177.322 296.164 177.147 296.466 177.05C296.767 176.954 297.089 176.941 297.398 177.011C297.706 177.082 297.99 177.235 298.219 177.453C298.613 177.831 298.924 178.381 299.154 179.103ZM298.245 179.389C298.131 179 297.956 178.631 297.726 178.296C297.42 177.884 297.088 177.736 296.73 177.851C296.371 177.966 296.183 178.278 296.166 178.787C296.168 179.196 296.238 179.601 296.373 179.987C296.766 181.219 297.277 181.734 297.906 181.534C298.27 181.417 298.453 181.101 298.457 180.585C298.451 180.178 298.379 179.774 298.245 179.389Z" fill="#6376E5"/>
<path d="M305.318 177.139C305.548 177.861 305.612 178.493 305.508 179.035C305.449 179.345 305.307 179.633 305.098 179.869C304.889 180.106 304.62 180.281 304.319 180.377C304.018 180.473 303.697 180.486 303.39 180.415C303.083 180.343 302.8 180.191 302.572 179.972C302.174 179.591 301.859 179.039 301.628 178.317C301.396 177.595 301.331 176.967 301.433 176.431C301.494 176.121 301.637 175.832 301.847 175.596C302.057 175.359 302.327 175.183 302.629 175.087C302.93 174.991 303.252 174.977 303.561 175.048C303.869 175.119 304.153 175.271 304.383 175.489C304.777 175.861 305.088 176.411 305.318 177.139ZM304.408 177.426C304.294 177.036 304.119 176.668 303.89 176.333C303.584 175.921 303.251 175.773 302.893 175.889C302.534 176.005 302.346 176.317 302.329 176.825C302.331 177.233 302.401 177.639 302.536 178.025C302.929 179.257 303.44 179.772 304.069 179.571C304.432 179.455 304.616 179.139 304.622 178.623C304.615 178.214 304.543 177.808 304.408 177.421V177.426Z" fill="#6376E5"/>
<path d="M309.385 175.835C309.616 176.558 309.679 177.19 309.574 177.731C309.516 178.041 309.374 178.329 309.165 178.565C308.956 178.802 308.687 178.977 308.386 179.073C308.086 179.169 307.765 179.182 307.457 179.111C307.15 179.04 306.867 178.887 306.64 178.668C306.241 178.288 305.926 177.736 305.695 177.014C305.464 176.292 305.4 175.663 305.501 175.127C305.561 174.817 305.704 174.528 305.915 174.292C306.125 174.055 306.395 173.879 306.697 173.783C306.998 173.687 307.32 173.673 307.628 173.744C307.937 173.815 308.221 173.967 308.45 174.185C308.843 174.563 309.154 175.113 309.385 175.835ZM308.476 176.122C308.362 175.732 308.187 175.363 307.957 175.029C307.651 174.618 307.319 174.469 306.96 174.583C306.602 174.698 306.414 175.01 306.397 175.52C306.399 175.928 306.468 176.333 306.602 176.719C306.997 177.952 307.509 178.468 308.137 178.266C308.5 178.15 308.683 177.833 308.688 177.318C308.682 176.91 308.61 176.507 308.476 176.122Z" fill="#6376E5"/>
<path d="M313.453 174.536C313.683 175.259 313.746 175.891 313.642 176.431C313.583 176.742 313.442 177.03 313.233 177.266C313.023 177.502 312.754 177.678 312.454 177.774C312.153 177.87 311.832 177.883 311.525 177.812C311.217 177.74 310.935 177.587 310.707 177.369C310.308 176.988 309.993 176.437 309.763 175.715C309.532 174.993 309.467 174.364 309.568 173.828C309.629 173.518 309.772 173.229 309.982 172.992C310.192 172.756 310.463 172.58 310.764 172.484C311.066 172.388 311.387 172.374 311.696 172.445C312.004 172.516 312.288 172.668 312.518 172.886C312.912 173.265 313.224 173.815 313.453 174.536ZM312.543 174.823C312.429 174.433 312.254 174.064 312.025 173.73C311.719 173.319 311.386 173.17 311.028 173.284C310.664 173.406 310.472 173.714 310.463 174.22C310.466 174.629 310.536 175.034 310.67 175.42C311.063 176.653 311.574 177.168 312.203 176.967C312.567 176.85 312.752 176.534 312.756 176.019C312.749 175.611 312.677 175.207 312.543 174.823Z" fill="#6376E5"/>
<path d="M317.519 173.237C317.75 173.959 317.813 174.591 317.71 175.132C317.651 175.442 317.509 175.731 317.3 175.967C317.091 176.204 316.822 176.379 316.521 176.475C316.22 176.571 315.899 176.585 315.592 176.513C315.284 176.442 315.002 176.289 314.774 176.071C314.375 175.69 314.061 175.138 313.829 174.416C313.597 173.694 313.533 173.065 313.635 172.529C313.695 172.218 313.838 171.93 314.048 171.693C314.259 171.457 314.529 171.281 314.83 171.185C315.132 171.088 315.454 171.075 315.762 171.146C316.071 171.216 316.355 171.369 316.584 171.587C316.977 171.97 317.289 172.52 317.519 173.237ZM316.61 173.523C316.496 173.134 316.321 172.765 316.091 172.431C315.785 172.019 315.453 171.87 315.094 171.985C314.736 172.1 314.548 172.412 314.531 172.921C314.533 173.33 314.603 173.735 314.737 174.121C315.131 175.354 315.642 175.869 316.271 175.668C316.634 175.553 316.818 175.237 316.823 174.719C316.816 174.312 316.744 173.908 316.61 173.523Z" fill="#6376E5"/>
<path d="M323.683 171.269C323.914 171.992 323.977 172.623 323.873 173.164C323.814 173.474 323.673 173.763 323.463 173.999C323.254 174.235 322.985 174.41 322.685 174.506C322.384 174.603 322.063 174.616 321.756 174.544C321.448 174.473 321.166 174.32 320.938 174.101C320.539 173.72 320.224 173.169 319.993 172.446C319.763 171.724 319.698 171.096 319.799 170.561C319.86 170.25 320.003 169.961 320.213 169.725C320.423 169.488 320.693 169.313 320.995 169.216C321.296 169.12 321.618 169.107 321.927 169.177C322.235 169.248 322.519 169.401 322.748 169.619C323.14 169.996 323.452 170.546 323.683 171.269ZM322.774 171.554C322.66 171.165 322.485 170.796 322.256 170.461C321.95 170.049 321.617 169.901 321.257 170.016C320.893 170.137 320.703 170.446 320.694 170.952C320.697 171.36 320.766 171.766 320.9 172.151C321.294 173.383 321.805 173.899 322.434 173.698C322.798 173.582 322.982 173.266 322.986 172.75C322.979 172.343 322.907 171.939 322.774 171.554Z" fill="#6376E5"/>
<path d="M327.75 169.976C327.98 170.698 328.044 171.329 327.939 171.871C327.881 172.181 327.739 172.47 327.53 172.706C327.321 172.943 327.052 173.119 326.751 173.215C326.451 173.311 326.129 173.324 325.822 173.252C325.514 173.181 325.232 173.027 325.004 172.808C324.606 172.429 324.291 171.877 324.06 171.155C323.828 170.432 323.764 169.803 323.866 169.268C323.926 168.957 324.069 168.668 324.279 168.432C324.49 168.195 324.76 168.02 325.061 167.923C325.363 167.827 325.685 167.814 325.993 167.884C326.302 167.955 326.585 168.107 326.815 168.326C327.208 168.697 327.52 169.247 327.75 169.976ZM326.84 170.262C326.727 169.873 326.552 169.504 326.322 169.169C326.016 168.757 325.684 168.609 325.325 168.724C324.966 168.839 324.779 169.151 324.762 169.66C324.764 170.068 324.833 170.474 324.968 170.86C325.361 172.092 325.873 172.607 326.502 172.406C326.864 172.29 327.048 171.974 327.054 171.458C327.047 171.049 326.975 170.643 326.84 170.256V170.262Z" fill="#6376E5"/>
<path d="M331.817 168.67C332.048 169.393 332.111 170.025 332.007 170.566C331.948 170.876 331.806 171.164 331.597 171.4C331.388 171.637 331.119 171.812 330.818 171.908C330.518 172.004 330.197 172.017 329.889 171.946C329.582 171.875 329.3 171.722 329.072 171.503C328.673 171.123 328.358 170.571 328.127 169.849C327.897 169.127 327.832 168.498 327.933 167.962C327.994 167.652 328.136 167.363 328.347 167.127C328.557 166.89 328.827 166.714 329.129 166.618C329.43 166.522 329.752 166.508 330.061 166.579C330.369 166.65 330.653 166.802 330.882 167.02C331.275 167.399 331.587 167.949 331.817 168.67ZM330.908 168.957C330.794 168.568 330.619 168.199 330.389 167.864C330.083 167.453 329.751 167.304 329.393 167.419C329.034 167.533 328.846 167.845 328.829 168.355C328.831 168.763 328.9 169.169 329.034 169.554C329.428 170.787 329.939 171.303 330.569 171.101C330.932 170.985 331.115 170.669 331.12 170.153C331.114 169.745 331.042 169.342 330.908 168.957Z" fill="#6376E5"/>
<path d="M335.885 167.371C336.115 168.094 336.179 168.726 336.074 169.267C336.015 169.577 335.874 169.865 335.665 170.102C335.455 170.338 335.186 170.513 334.886 170.61C334.585 170.706 334.264 170.719 333.956 170.648C333.649 170.576 333.366 170.424 333.138 170.205C332.74 169.824 332.426 169.272 332.195 168.55C331.964 167.828 331.899 167.199 332.001 166.663C332.061 166.353 332.204 166.064 332.414 165.827C332.624 165.591 332.894 165.415 333.195 165.319C333.497 165.222 333.819 165.209 334.127 165.28C334.436 165.35 334.719 165.503 334.949 165.721C335.342 166.1 335.654 166.65 335.885 167.371ZM334.974 167.658C334.86 167.268 334.686 166.9 334.457 166.565C334.151 166.154 333.819 166.005 333.46 166.119C333.096 166.241 332.904 166.549 332.895 167.055C332.898 167.464 332.968 167.869 333.102 168.255C333.495 169.488 334.006 170.004 334.635 169.802C335 169.681 335.183 169.37 335.188 168.855C335.181 168.447 335.109 168.043 334.974 167.658Z" fill="#6376E5"/>
<path d="M281.468 169.783L262.084 175.975C261.679 176.103 261.241 176.065 260.864 175.87C260.488 175.676 260.203 175.34 260.073 174.937C259.946 174.533 259.983 174.095 260.177 173.718C260.371 173.342 260.707 173.057 261.11 172.927L280.495 166.735C280.899 166.607 281.337 166.645 281.714 166.839C282.091 167.034 282.375 167.37 282.505 167.773C282.633 168.177 282.595 168.615 282.401 168.992C282.207 169.368 281.872 169.652 281.468 169.783Z" fill="#6376E5"/>
<path d="M328.551 158.319C328.382 157.787 328.036 157.329 327.57 157.02C327.539 157 327.504 156.986 327.467 156.98C327.431 156.974 327.393 156.975 327.357 156.985C327.321 156.994 327.288 157.011 327.259 157.035C327.23 157.058 327.207 157.088 327.19 157.121L327.129 157.242C327.1 157.298 327.093 157.363 327.109 157.424C327.124 157.485 327.162 157.539 327.214 157.574C327.551 157.8 327.801 158.133 327.925 158.519C328.048 158.905 328.037 159.322 327.894 159.701C327.872 159.76 327.872 159.825 327.895 159.884C327.917 159.943 327.96 159.992 328.016 160.022L328.137 160.085C328.17 160.102 328.205 160.111 328.242 160.114C328.279 160.116 328.315 160.11 328.35 160.097C328.384 160.084 328.415 160.064 328.441 160.038C328.467 160.013 328.488 159.982 328.501 159.948C328.703 159.426 328.721 158.852 328.551 158.319Z" fill="#6376E5"/>
<path d="M329.807 157.919C329.529 157.043 328.939 156.3 328.15 155.83C328.12 155.812 328.085 155.801 328.05 155.797C328.015 155.793 327.979 155.796 327.945 155.806C327.911 155.816 327.879 155.834 327.852 155.856C327.824 155.879 327.802 155.908 327.786 155.94L327.751 156.009C327.721 156.068 327.715 156.137 327.734 156.2C327.753 156.264 327.796 156.318 327.853 156.351C328.51 156.748 329.001 157.37 329.235 158.102C329.468 158.833 329.429 159.624 329.123 160.329C329.096 160.39 329.094 160.459 329.116 160.522C329.139 160.585 329.185 160.636 329.244 160.666L329.312 160.703C329.344 160.72 329.379 160.731 329.415 160.734C329.451 160.738 329.487 160.733 329.521 160.722C329.555 160.711 329.587 160.692 329.614 160.668C329.64 160.644 329.662 160.614 329.677 160.581C330.045 159.74 330.091 158.792 329.807 157.919Z" fill="#6376E5"/>
<path d="M330.908 157.567C330.534 156.396 329.736 155.409 328.67 154.798C328.639 154.78 328.605 154.769 328.57 154.765C328.534 154.761 328.498 154.764 328.464 154.774C328.43 154.784 328.399 154.801 328.371 154.824C328.344 154.847 328.322 154.876 328.306 154.907C328.276 154.967 328.27 155.036 328.289 155.1C328.308 155.164 328.351 155.218 328.409 155.251C329.361 155.798 330.074 156.682 330.409 157.728C330.743 158.774 330.674 159.908 330.216 160.906C330.187 160.966 330.183 161.035 330.205 161.098C330.226 161.162 330.271 161.214 330.33 161.246C330.361 161.263 330.396 161.273 330.432 161.277C330.468 161.28 330.504 161.276 330.538 161.264C330.573 161.253 330.604 161.234 330.631 161.21C330.658 161.186 330.679 161.157 330.694 161.124C331.208 160.007 331.284 158.737 330.908 157.567Z" fill="#6376E5"/>
<path d="M332.1 157.187C331.625 155.695 330.6 154.44 329.233 153.678C329.203 153.66 329.168 153.648 329.133 153.644C329.097 153.64 329.062 153.644 329.027 153.654C328.993 153.664 328.962 153.682 328.934 153.705C328.907 153.728 328.885 153.756 328.869 153.788L328.809 153.909C328.778 153.969 328.772 154.039 328.792 154.103C328.811 154.167 328.855 154.222 328.914 154.254C330.133 154.938 331.047 156.058 331.472 157.389C331.897 158.72 331.801 160.162 331.204 161.425C331.175 161.486 331.171 161.555 331.193 161.619C331.214 161.682 331.259 161.735 331.318 161.766L331.44 161.828C331.471 161.846 331.506 161.857 331.542 161.86C331.578 161.863 331.614 161.859 331.648 161.848C331.683 161.836 331.714 161.818 331.741 161.794C331.768 161.769 331.789 161.74 331.804 161.707C332.473 160.292 332.579 158.676 332.1 157.187Z" fill="#6376E5"/>
<path d="M282.085 185.985H239.772V307.864H282.085V185.985Z" fill="#FFA412"/>
<path d="M239.772 185.985H127.985V307.864H239.772V185.985Z" fill="#FFB93E"/>
<path d="M239.772 254.136V245.605H127.985V254.136H239.772Z" fill="#FFA412"/>
<path d="M282.086 254.136V245.605H239.773V254.136H282.086Z" fill="#FA9712"/>
<path d="M205.058 187.29C205.058 187.29 230.313 170.879 247.481 176.152L243.939 179.46L245.536 185.018C245.536 185.018 226.445 178.802 204.536 188.225L205.058 187.29Z" fill="#F99746"/>
<path d="M203.646 183.575C203.646 183.575 199.19 183.035 192.548 182.118C174.917 179.689 141.892 174.619 135.967 169.923C126.653 162.547 148.723 131.222 158.278 126.874C167.832 122.526 203.646 183.575 203.646 183.575Z" fill="#F99746"/>
<path d="M273.519 144.565C275.111 152.326 202.99 185.848 202.99 185.848C202.99 185.848 204.303 182.3 206.436 176.741V176.733C214.234 156.441 233.018 109.355 239.19 110.007C239.811 110.071 240.536 110.292 241.347 110.648C250.833 114.826 272.052 137.418 273.519 144.565Z" fill="#F99746"/>
<path d="M240.743 117.555C236.338 125.205 206.902 175.948 206.441 176.74C214.239 156.448 233.023 109.362 239.195 110.014C239.195 110.014 240.418 109.979 241.351 110.655C242.477 111.475 243.172 113.331 240.743 117.555Z" fill="#ED7D2B"/>
<path d="M192.56 182.118H192.548C174.917 179.689 141.892 174.619 135.967 169.923C133.296 162.383 140.235 161.77 145.289 161.24C150.344 160.709 192.56 182.118 192.56 182.118Z" fill="#ED7D2B"/>
<path d="M190.195 185.975C190.195 185.975 194.238 176.778 202.195 176.268C210.506 175.736 215.226 185.975 215.226 185.975H190.195Z" fill="#ED7D2B"/>
<path d="M241.565 185.985H124.596V202.748H241.565V185.985Z" fill="#FFC261"/>
<path d="M285.653 185.985H241.565V202.748H285.653V185.985Z" fill="#FA9712"/>
<path d="M194.292 184.58C194.292 184.58 171.382 177.323 155.923 182.121C138.104 187.652 139.16 209.638 139.16 209.638L143.35 207.915L149.009 210.57C149.009 210.57 149.963 187.288 164.491 184.029C177.053 181.211 194.292 184.58 194.292 184.58Z" fill="#F99746"/>
<path d="M182.54 185.985H174.009V307.851H182.54V185.985Z" fill="#FFA412"/>
<path d="M104.227 149.393L96.3954 152.018L103.956 174.576L111.788 171.951L104.227 149.393Z" fill="#ED7D2B"/>
<path d="M236.184 209.505H236.173C236.153 209.506 236.158 209.505 236.184 209.505Z" fill="#FFB27D"/>
<path d="M246.138 194.873C246.138 194.873 247.2 196.303 247.252 197.435C247.305 198.566 246.882 200.755 247.528 200.849C247.528 200.849 249.752 197.935 248.716 195.683C247.617 193.288 246.138 194.873 246.138 194.873Z" fill="#233862"/>
<path d="M236.906 233.542C232.612 233.542 230.835 232.065 230.714 231.964L230.437 229.941C230.478 229.971 236.24 233.432 245.157 230.118L244.967 231.65C241.535 232.924 239.137 233.542 236.906 233.542Z" fill="#B64C41"/>
<path d="M190.404 246.035H168.885V308.018H190.404V246.035Z" fill="#4A75CB"/>
<path d="M168.885 246.035H112.034V308.018H168.885V246.035Z" fill="#739AF0"/>
<path d="M168.885 280.694V276.356H112.034V280.694H168.885Z" fill="#6376E5"/>
<path d="M190.404 280.693V276.355H168.885V280.693H190.404Z" fill="#88B3FF"/>
<path d="M153.506 245.081C153.506 245.081 170.934 237.17 183.084 240.177L180.655 241.8L181.878 244.665C181.878 244.665 168.362 241.144 153.154 245.548L153.506 245.081Z" fill="#4A75CB"/>
<path d="M150.52 244.777C150.52 244.777 148.255 244.503 144.877 244.039C135.91 242.805 119.114 240.225 116.1 237.837C111.365 234.086 122.588 218.155 127.446 215.944C132.304 213.733 150.52 244.777 150.52 244.777Z" fill="#72A9F7"/>
<path d="M186.055 224.94C186.865 228.886 150.186 245.937 150.186 245.937C150.186 245.937 150.854 244.132 151.94 241.307C155.905 230.986 165.458 207.041 168.597 207.373C168.976 207.426 169.344 207.536 169.69 207.698C174.517 209.816 185.309 221.304 186.055 224.94Z" fill="#72A9F7"/>
<path d="M169.386 211.204C167.146 215.089 152.176 240.899 151.942 241.302C155.908 230.981 165.461 207.036 168.6 207.368C168.988 207.368 169.367 207.481 169.692 207.693C170.268 208.111 170.624 209.054 169.386 211.204Z" fill="#4A75CB"/>
<path d="M144.883 244.041C135.916 242.808 119.12 240.228 116.106 237.839C114.744 234.006 118.276 233.693 120.842 233.423C123.407 233.154 144.883 244.041 144.883 244.041Z" fill="#4A75CB"/>
<path d="M143.679 245.999C143.679 245.999 145.735 241.322 149.782 241.062C154.009 240.792 156.409 245.999 156.409 245.999H143.679Z" fill="#4A75CB"/>
<path d="M169.797 246.035H110.311V254.56H169.797V246.035Z" fill="#88B3FF"/>
<path d="M192.218 246.035H169.797V254.56H192.218V246.035Z" fill="#3969B7"/>
<path d="M145.756 245.32C145.756 245.32 134.099 241.63 126.242 244.069C117.181 246.883 117.718 258.064 117.718 258.064L119.848 257.189L122.726 258.538C122.726 258.538 123.212 246.698 130.6 245.039C136.988 243.607 145.756 245.32 145.756 245.32Z" fill="#4A75CB"/>
<path d="M139.778 246.035H135.44V308.553H139.778V246.035Z" fill="#6376E5"/>
<path d="M318.313 269.282C318.138 269.389 317.961 269.492 317.781 269.59C317.719 269.624 317.66 269.658 317.598 269.69C317.458 269.764 317.319 269.836 317.178 269.906C313.855 271.541 310.025 271.811 306.506 270.657C302.987 269.503 300.06 267.018 298.351 263.733C296.641 260.448 296.286 256.624 297.361 253.08C298.436 249.537 300.855 246.555 304.101 244.772C304.282 244.673 304.465 244.577 304.65 244.486C304.834 244.394 305.014 244.31 305.189 244.232C306.537 243.631 307.971 243.245 309.438 243.088C312.64 242.748 315.861 243.508 318.573 245.243C321.284 246.978 323.324 249.585 324.357 252.634C325.39 255.683 325.353 258.993 324.254 262.019C323.155 265.044 321.058 267.606 318.309 269.281L318.313 269.282Z" fill="#FFB93E"/>
<path d="M311.033 270.241C307.888 270.245 304.849 269.102 302.488 267.025C300.126 264.948 298.603 262.081 298.205 258.961C297.807 255.842 298.56 252.684 300.324 250.081C302.089 247.477 304.742 245.607 307.787 244.821C310.832 244.034 314.06 244.386 316.864 245.81C319.668 247.234 321.856 249.632 323.018 252.555C324.18 255.477 324.235 258.723 323.174 261.684C322.113 264.644 320.008 267.116 317.254 268.635C315.349 269.686 313.209 270.238 311.033 270.241ZM311.011 245.188C308.349 245.189 305.761 246.066 303.646 247.682C301.53 249.299 300.005 251.566 299.304 254.134C298.604 256.702 298.767 259.43 299.768 261.897C300.769 264.363 302.554 266.432 304.846 267.786C307.139 269.139 309.813 269.701 312.456 269.386C315.1 269.071 317.566 267.895 319.476 266.041C321.386 264.186 322.634 261.755 323.027 259.122C323.42 256.489 322.937 253.8 321.652 251.469C320.602 249.566 319.061 247.98 317.189 246.875C315.318 245.77 313.184 245.187 311.011 245.188Z" fill="#FFA412"/>
<path d="M311.022 247.824L313.869 253.592L320.234 254.517L315.628 259.007L316.715 265.348L311.022 262.354L305.327 265.348L306.415 259.007L301.809 254.517L308.175 253.592L311.022 247.824Z" fill="#FFA412"/>
<path d="M326.804 234.801C326.706 234.861 326.605 234.923 326.504 234.975L326.4 235.031C326.321 235.073 326.243 235.113 326.163 235.152C324.363 236.035 322.297 236.21 320.374 235.643C318.452 235.075 316.813 233.805 315.782 232.086C314.751 230.366 314.403 228.322 314.808 226.359C315.212 224.395 316.34 222.656 317.967 221.484C318.228 221.296 318.5 221.124 318.783 220.969C318.885 220.912 318.988 220.858 319.093 220.807C319.197 220.756 319.294 220.708 319.397 220.663C319.707 220.525 320.025 220.407 320.349 220.31C320.822 220.168 321.307 220.07 321.798 220.019C323.604 219.827 325.422 220.256 326.953 221.235C328.483 222.215 329.634 223.686 330.217 225.406C330.8 227.127 330.779 228.995 330.159 230.703C329.539 232.41 328.355 233.856 326.804 234.801Z" fill="#FFB93E"/>
<path d="M322.701 235.342C320.927 235.343 319.214 234.698 317.882 233.526C316.55 232.354 315.692 230.737 315.468 228.977C315.244 227.217 315.669 225.436 316.665 223.968C317.66 222.5 319.157 221.445 320.875 221.002C322.592 220.559 324.413 220.758 325.994 221.562C327.576 222.365 328.81 223.718 329.465 225.366C330.12 227.015 330.151 228.846 329.552 230.516C328.953 232.185 327.766 233.579 326.213 234.436C325.137 235.029 323.929 235.341 322.701 235.342ZM322.688 221.202C321.185 221.203 319.725 221.698 318.531 222.611C317.337 223.523 316.476 224.803 316.081 226.252C315.686 227.702 315.778 229.241 316.343 230.633C316.908 232.025 317.915 233.193 319.209 233.957C320.503 234.721 322.012 235.038 323.504 234.86C324.996 234.682 326.388 234.019 327.466 232.972C328.544 231.926 329.248 230.554 329.47 229.068C329.692 227.582 329.42 226.064 328.694 224.748C328.101 223.673 327.23 222.777 326.173 222.153C325.115 221.529 323.909 221.201 322.682 221.202H322.688Z" fill="#FFA412"/>
<path d="M322.689 222.69L324.295 225.946L327.888 226.468L325.289 229.002L325.902 232.581L322.689 230.89L319.475 232.581L320.089 229.002L317.489 226.468L321.081 225.946L322.689 222.69Z" fill="#FFA412"/>
<path d="M170.913 303.658C170.808 303.787 170.7 303.913 170.59 304.037L170.477 304.158C170.39 304.252 170.303 304.345 170.214 304.435C168.206 306.483 165.502 307.701 162.637 307.85C159.773 307.998 156.957 307.066 154.748 305.237C152.539 303.408 151.096 300.816 150.707 297.974C150.318 295.133 151.01 292.249 152.646 289.893C152.908 289.515 153.192 289.153 153.496 288.809C153.608 288.687 153.722 288.566 153.837 288.444C153.953 288.323 154.064 288.215 154.18 288.106C154.532 287.772 154.905 287.462 155.297 287.175C155.869 286.758 156.478 286.396 157.118 286.092C159.465 284.973 162.123 284.686 164.654 285.279C167.186 285.872 169.44 287.309 171.046 289.354C172.652 291.399 173.514 293.93 173.489 296.53C173.465 299.129 172.556 301.644 170.913 303.658Z" fill="#AFCBF3"/>
<path d="M162.133 306.936C159.384 306.937 156.746 305.857 154.788 303.928C152.83 302 151.71 299.378 151.669 296.63C151.627 293.882 152.669 291.228 154.569 289.242C156.468 287.256 159.073 286.097 161.82 286.016C164.567 285.934 167.236 286.937 169.25 288.807C171.264 290.677 172.461 293.265 172.582 296.01C172.704 298.756 171.741 301.439 169.9 303.48C168.06 305.521 165.491 306.756 162.747 306.918C162.542 306.936 162.337 306.936 162.133 306.936ZM162.159 286.706C161.968 286.706 161.776 286.706 161.582 286.723C159.019 286.874 156.618 288.028 154.899 289.934C153.18 291.841 152.28 294.347 152.393 296.912C152.506 299.476 153.624 301.894 155.505 303.641C157.386 305.388 159.879 306.325 162.445 306.25C165.011 306.174 167.445 305.092 169.22 303.238C170.994 301.383 171.968 298.904 171.931 296.337C171.893 293.77 170.847 291.321 169.019 289.519C167.191 287.717 164.727 286.706 162.159 286.706Z" fill="#6376E5"/>
<path d="M159.593 289.271L163.311 292.899L168.408 291.893L166.106 296.55L168.638 301.086L163.497 300.337L159.965 304.147L159.09 299.026L154.374 296.844L158.975 294.429L159.593 289.271Z" fill="#6376E5"/>
<path d="M206.765 229.88C206.765 229.88 205.181 230.961 203.42 230.784C202.111 230.651 200.823 229.441 200.773 229.361L199.731 231.172C199.731 231.172 202.115 232.618 204.158 232.222C204.784 232.101 205.799 231.479 206.258 231.008C206.557 230.705 206.737 230.305 206.765 229.88Z" fill="#6BB7BF"/>
<path d="M206.723 226.105L209.342 225.021C209.342 225.021 208.977 230.464 204.485 232.128C204.484 232.128 207.326 228.401 206.723 226.105Z" fill="#86D1CD"/>
<path d="M225.098 291.176C225.098 291.176 226.242 292.472 227.368 292.446C227.368 292.446 227.517 293.863 227.11 294.24C227.11 294.24 225.185 293.888 224.721 293.185C224.716 293.185 224.332 291.494 225.098 291.176Z" fill="#F99746"/>
<path d="M207.155 273.365C207.155 273.365 206.119 272.109 206.134 270.605C206.146 269.488 207.071 268.306 207.134 268.257L205.522 267.515C205.522 267.515 204.483 269.643 204.974 271.34C205.125 271.86 205.728 272.676 206.158 273.023C206.438 273.253 206.792 273.375 207.155 273.365Z" fill="#AFCBF3"/>
<path d="M210.345 273.04L211.463 275.171C211.463 275.171 206.832 275.285 205.079 271.608C205.079 271.603 208.446 273.726 210.345 273.04Z" fill="#AFCBF3"/>
<path d="M72.2776 213.079C72.9499 212.364 73.4728 211.495 73.8095 210.532C74.1461 209.568 74.2884 208.535 74.2263 207.504C74.1641 206.473 73.8991 205.47 73.4497 204.565C73.0004 203.661 72.3778 202.876 71.6257 202.267L61.3512 110.363L48.0765 114.743L62.4078 204.181C61.5697 205.651 61.2466 207.411 61.4997 209.128C61.7528 210.844 62.5646 212.398 63.7812 213.495C64.9978 214.591 66.5347 215.155 68.1006 215.078C69.6665 215.002 71.1527 214.29 72.2776 213.079Z" fill="#FFB8B8"/>
<path d="M84.5825 300.923H92.3466L96.0421 267.692H84.5825V300.923Z" fill="#FFB8B8"/>
<path d="M30.8918 287.504L38.1692 290.507L52.0726 260.79L41.3325 256.357L30.8918 287.504Z" fill="#FFB8B8"/>
<path d="M49.6897 303.798L26.8193 294.358L30.1061 284.553L44.9486 290.679C47.0777 291.558 48.8051 293.339 49.7506 295.631C50.6961 297.923 50.7824 300.538 49.9904 302.901L49.6897 303.798Z" fill="#495ABE"/>
<path d="M70.6546 86.5049C78.7624 86.5049 85.335 79.2114 85.335 70.2146C85.335 61.2177 78.7624 53.9242 70.6546 53.9242C62.5468 53.9242 55.9741 61.2177 55.9741 70.2146C55.9741 79.2114 62.5468 86.5049 70.6546 86.5049Z" fill="#FFB8B8"/>
<path d="M47.6924 112.024C47.2327 97.0188 61.4442 86.6095 73.4012 93.635C74.9246 94.5301 90.6547 109.36 91.2475 118.569C91.8403 127.778 93.0259 142.908 93.0259 142.908L109.624 280.39L74.0562 278.417L78.3517 238.311L55.2324 279.095L27.2248 269.208L61.6074 159.353C61.6074 159.353 48.3891 134.763 47.6924 112.024Z" fill="#495ABE"/>
<path d="M47.9724 117.247L50.2564 150.195C50.2802 150.539 50.4202 150.86 50.6484 151.095C50.8766 151.329 51.1761 151.46 51.487 151.46H61.5365C61.7396 151.46 61.9395 151.404 62.1186 151.298C62.2976 151.191 62.4503 151.038 62.5631 150.85C62.6758 150.663 62.7452 150.447 62.7649 150.223C62.7847 149.999 62.7542 149.773 62.6763 149.564L50.3429 116.617C50.2303 116.316 50.0247 116.07 49.7631 115.922C49.5014 115.774 49.2009 115.734 48.9154 115.81C48.6299 115.886 48.3781 116.073 48.2053 116.336C48.0324 116.599 47.9499 116.923 47.9724 117.247Z" fill="#495ABE"/>
<path d="M99.5805 207.37C100.173 206.573 100.6 205.642 100.833 204.641C101.066 203.641 101.098 202.596 100.928 201.581C100.757 200.565 100.388 199.603 99.8468 198.763C99.3051 197.923 98.604 197.224 97.7929 196.717L77.8964 106.779L65.1748 112.852L88.8402 199.815C88.1629 201.384 88.0276 203.174 88.46 204.846C88.8925 206.517 89.8625 207.955 91.1864 208.886C92.5103 209.818 94.096 210.178 95.6431 209.898C97.1902 209.619 98.5912 208.719 99.5805 207.37Z" fill="#FFB8B8"/>
<path d="M66.9426 98.8347C66.9426 98.8347 62.7929 108.044 66.9426 124.489C71.0922 140.935 74.0562 154.749 74.0562 154.749C74.0562 154.749 83.5411 148.17 87.6907 150.144C91.8403 152.117 81.1266 106.305 81.1266 106.305C81.1266 106.305 74.649 90.941 66.9426 98.8347Z" fill="#495ABE"/>
<path d="M74.0994 72.7565C74.2977 69.3763 78.1406 69.2605 81.1931 69.2285C84.2455 69.1965 87.8949 69.3174 89.622 66.5244C90.7635 64.6787 90.5454 62.1162 89.6025 60.1373C88.6595 58.1583 87.1084 56.6363 85.5824 55.1721C81.6428 51.3918 77.5826 47.6416 72.8527 45.222C68.1229 42.8024 62.5802 41.8247 57.6749 43.767C51.6491 46.153 43.5033 58.4351 42.7999 65.4916C42.0965 72.5481 44.6379 79.7417 48.9218 85.0147C53.2058 90.2878 63.0109 88.1603 69.1815 90.0361C65.4301 84.1445 67.9028 73.4393 73.9124 70.688L74.0994 72.7565Z" fill="#495ABE"/>
<path d="M291.319 90.0647L270.629 96.9995L278.19 119.557L298.88 112.622L291.319 90.0647Z" fill="#F99746"/>
<path d="M295.665 103.026L295.132 101.445L274.402 108.428L274.935 110.009L295.665 103.026Z" fill="#FFB93E"/>
<path d="M303.524 100.432L302.992 98.8504L295.144 101.494L295.677 103.075L303.524 100.432Z" fill="#F69B34"/>
<path d="M285.605 91.5942C285.605 91.5942 290.983 86.5893 295.771 86.202L295.087 87.0883L295.881 87.982C295.881 87.982 290.532 88.3462 285.534 91.8067L285.605 91.5942Z" fill="#FFB93E"/>
<path d="M284.482 91.8601C284.482 91.8601 283.625 92.0374 282.339 92.2802C278.924 92.925 272.496 94.0347 271.109 93.5333C268.923 92.7453 271.069 85.5791 272.566 84.184C274.063 82.7889 284.482 91.8601 284.482 91.8601Z" fill="#FFB93E"/>
<path d="M294.994 80.3058C295.771 81.6415 284.502 92.3263 284.502 92.3263C284.502 92.3263 284.526 91.5881 284.575 90.4273C284.759 86.1886 285.315 76.3087 286.497 76.0465C286.642 76.0189 286.79 76.0136 286.937 76.0307C288.951 76.208 294.28 79.0734 294.994 80.3058Z" fill="#FFB93E"/>
<path d="M287.253 77.3396C286.913 79.0285 284.612 90.2464 284.581 90.4213C284.765 86.1825 285.321 76.3027 286.503 76.0404C286.645 75.9926 286.798 75.9871 286.943 76.0246C287.197 76.1072 287.441 76.4071 287.253 77.3396Z" fill="#F69B34"/>
<path d="M282.34 92.279C278.926 92.9237 272.498 94.0335 271.11 93.532C270.147 92.3021 271.394 91.7581 272.296 91.3465C273.198 90.9349 282.34 92.279 282.34 92.279Z" fill="#F69B34"/>
<path d="M282.142 93.1386C282.142 93.1386 282.319 91.1862 283.761 90.5986C285.266 89.9842 286.774 91.5857 286.774 91.5857L282.142 93.1386Z" fill="#F69B34"/>
<path d="M291.649 89.9531L270 97.2094L271.04 100.312L292.689 93.0557L291.649 89.9531Z" fill="#FFA15A"/>
<path d="M299.81 87.2174L291.65 89.9525L292.689 93.0551L300.849 90.32L299.81 87.2174Z" fill="#F78639"/>
<path d="M282.813 92.6263C282.813 92.6263 278.123 92.7052 275.56 94.552C272.605 96.6804 274.164 100.685 274.164 100.685L274.833 100.106L276.047 100.247C276.047 100.247 274.779 95.8754 277.261 94.3735C279.414 93.0719 282.813 92.6263 282.813 92.6263Z" fill="#FFBE55"/>
<path d="M280.725 93.6153L279.147 94.1443L286.773 116.896L288.351 116.367L280.725 93.6153Z" fill="#FFB93E"/>
<defs>
<linearGradient id="paint0_linear_526_3609" x1="166.686" y1="44.2483" x2="235.347" y2="44.2483" gradientUnits="userSpaceOnUse">
<stop/>
<stop offset="0.05" stop-color="#303030"/>
<stop offset="0.1" stop-color="#5B5B5B"/>
<stop offset="0.15" stop-color="#828282"/>
<stop offset="0.21" stop-color="#A4A4A4"/>
<stop offset="0.28" stop-color="#C0C0C0"/>
<stop offset="0.35" stop-color="#D8D8D8"/>
<stop offset="0.44" stop-color="#E9E9E9"/>
<stop offset="0.54" stop-color="#F6F6F6"/>
<stop offset="0.68" stop-color="#FDFDFD"/>
<stop offset="1" stop-color="white"/>
</linearGradient>
<linearGradient id="paint1_linear_526_3609" x1="135.87" y1="102.125" x2="199.479" y2="102.125" gradientUnits="userSpaceOnUse">
<stop/>
<stop offset="0.05" stop-color="#303030"/>
<stop offset="0.1" stop-color="#5B5B5B"/>
<stop offset="0.15" stop-color="#828282"/>
<stop offset="0.21" stop-color="#A4A4A4"/>
<stop offset="0.28" stop-color="#C0C0C0"/>
<stop offset="0.35" stop-color="#D8D8D8"/>
<stop offset="0.44" stop-color="#E9E9E9"/>
<stop offset="0.54" stop-color="#F6F6F6"/>
<stop offset="0.68" stop-color="#FDFDFD"/>
<stop offset="1" stop-color="white"/>
</linearGradient>
<linearGradient id="paint2_linear_526_3609" x1="195.191" y1="106.301" x2="263.858" y2="106.301" gradientUnits="userSpaceOnUse">
<stop/>
<stop offset="0.05" stop-color="#303030"/>
<stop offset="0.1" stop-color="#5B5B5B"/>
<stop offset="0.15" stop-color="#828282"/>
<stop offset="0.21" stop-color="#A4A4A4"/>
<stop offset="0.28" stop-color="#C0C0C0"/>
<stop offset="0.35" stop-color="#D8D8D8"/>
<stop offset="0.44" stop-color="#E9E9E9"/>
<stop offset="0.54" stop-color="#F6F6F6"/>
<stop offset="0.68" stop-color="#FDFDFD"/>
<stop offset="1" stop-color="white"/>
</linearGradient>
</defs>
</svg>
